<svg width="52" height="36" viewBox="0 0 52 36" fill="none" xmlns="http://www.w3.org/2000/svg">
<path fill-rule="evenodd" clip-rule="evenodd" d="M14.4531 12.5147C14.0166 13.0426 13.3183 13.4589 12.6199 13.3994C12.5326 12.6857 12.8745 11.9274 13.2746 11.459C13.7111 10.9163 14.4749 10.5297 15.0932 10.5C15.166 11.2434 14.8823 11.972 14.4531 12.5147ZM15.0859 13.5407C14.4707 13.5045 13.9093 13.7298 13.4559 13.9117C13.1641 14.0288 12.917 14.128 12.729 14.128C12.518 14.128 12.2607 14.0235 11.9719 13.9062C11.5933 13.7526 11.1605 13.5769 10.7067 13.5853C9.66647 13.6002 8.69896 14.2023 8.16793 15.1614C7.07676 17.0795 7.88423 19.9194 8.93902 21.4807C9.45551 22.2539 10.0738 23.1014 10.8886 23.0716C11.247 23.0578 11.5048 22.946 11.7717 22.8303C12.0789 22.6971 12.398 22.5587 12.8963 22.5587C13.3773 22.5587 13.6825 22.6935 13.9755 22.8228C14.254 22.9459 14.5215 23.064 14.9186 23.0568C15.7624 23.0419 16.2935 22.2836 16.81 21.5104C17.3673 20.6806 17.6123 19.8707 17.6494 19.7478L17.6538 19.7336C17.6529 19.7327 17.646 19.7294 17.6339 19.7238C17.4476 19.6366 16.0234 18.9703 16.0098 17.1836C15.9961 15.6839 17.1393 14.924 17.3193 14.8044C17.3303 14.7971 17.3377 14.7922 17.341 14.7897C16.6136 13.6894 15.4787 13.5704 15.0859 13.5407ZM20.9274 22.975V11.3847H25.1829C27.3798 11.3847 28.9147 12.931 28.9147 15.1911C28.9147 17.4512 27.3507 19.0124 25.1247 19.0124H22.6878V22.975H20.9274ZM22.6876 12.9013H24.7172C26.2448 12.9013 27.1178 13.734 27.1178 15.1986C27.1178 16.6632 26.2448 17.5032 24.7099 17.5032H22.6876V12.9013ZM34.7271 21.5848C34.2615 22.4918 33.2358 23.0642 32.1301 23.0642C30.4934 23.0642 29.3513 22.068 29.3513 20.5662C29.3513 19.0793 30.457 18.2244 32.5011 18.098L34.698 17.9642V17.3248C34.698 16.3806 34.0942 15.8677 33.0176 15.8677C32.1301 15.8677 31.4827 16.336 31.3518 17.0497H29.7659C29.8169 15.548 31.199 14.4551 33.0685 14.4551C35.0836 14.4551 36.393 15.5331 36.393 17.2059V22.975H34.7635V21.5848H34.7271ZM32.6028 21.6889C31.6644 21.6889 31.0679 21.2279 31.0679 20.5216C31.0679 19.7931 31.6426 19.3693 32.7411 19.3024L34.6979 19.176V19.8302C34.6979 20.9157 33.7959 21.6889 32.6028 21.6889ZM41.7978 23.4285C41.0922 25.4581 40.2847 26.1272 38.5679 26.1272C38.437 26.1272 38.0005 26.1123 37.8987 26.0826V24.6924C38.0078 24.7072 38.2769 24.7221 38.4152 24.7221C39.1935 24.7221 39.63 24.3876 39.8991 23.5177L40.0592 23.0047L37.0767 14.5666H38.9171L40.9903 21.4138H41.0267L43.0999 14.5666H44.8894L41.7978 23.4285Z" fill="#333333"/>
</svg>
