<svg width="28" height="28" viewBox="0 0 28 28" fill="none" xmlns="http://www.w3.org/2000/svg">
<g clip-path="url(#clip0)">
<path fill-rule="evenodd" clip-rule="evenodd" d="M18.9517 4.66602C17.5139 4.66602 16.3295 5.94284 16.3295 7.49294V7.80704H3.21855C2.90333 7.80224 2.61013 7.98078 2.45121 8.27431C2.2923 8.56783 2.2923 8.93087 2.45121 9.22439C2.61013 9.51792 2.90333 9.69646 3.21855 9.69166H16.3295V10.0058C16.3295 11.5559 17.5139 12.8327 18.9517 12.8327C20.3896 12.8327 21.5739 11.5559 21.5739 10.0058V9.69166H24.7789C25.0941 9.69646 25.3873 9.51792 25.5462 9.22439C25.7051 8.93087 25.7051 8.56783 25.5462 8.27431C25.3873 7.98078 25.0941 7.80224 24.7789 7.80704H21.5739V7.49294C21.5739 5.94284 20.3896 4.66602 18.9517 4.66602ZM18.9636 6.41146C18.4814 6.41146 18.0905 6.80233 18.0905 7.28449V9.62983C18.0905 10.112 18.4814 10.5029 18.9636 10.5029C19.4457 10.5029 19.8366 10.112 19.8366 9.62983V7.28449C19.8366 6.80233 19.4457 6.41146 18.9636 6.41146Z" fill="white"/>
<path fill-rule="evenodd" clip-rule="evenodd" d="M9.04826 15.748C10.4861 15.748 11.6705 16.9337 11.6705 18.373V18.6647H24.7815C25.0967 18.6603 25.3899 18.826 25.5488 19.0986C25.7077 19.3712 25.7077 19.7083 25.5488 19.9808C25.3899 20.2534 25.0967 20.4192 24.7815 20.4147H11.6705V20.7064C11.6705 22.1458 10.4861 23.3314 9.04826 23.3314C7.61042 23.3314 6.42606 22.1458 6.42606 20.7064V20.4147H3.22115C2.90593 20.4192 2.61273 20.2534 2.45382 19.9808C2.29491 19.7083 2.29491 19.3712 2.45382 19.0986C2.61273 18.826 2.90593 18.6603 3.22115 18.6647H6.42606V18.373C6.42606 16.9337 7.61042 15.748 9.04826 15.748ZM9.04083 17.4935C9.523 17.4935 9.91387 17.8844 9.91387 18.3665V20.7119C9.91387 21.194 9.523 21.5849 9.04083 21.5849C8.55867 21.5849 8.1678 21.194 8.1678 20.7119V18.3665C8.1678 17.8844 8.55867 17.4935 9.04083 17.4935Z" fill="white"/>
</g>
<defs>
<clipPath id="clip0">
<rect width="28" height="28" fill="white"/>
</clipPath>
</defs>
</svg>
