<svg width="18" height="18" viewBox="0 0 18 18" fill="none" xmlns="http://www.w3.org/2000/svg">
<path d="M15.141 2.25017C14.984 2.25388 14.8347 2.31959 14.7259 2.43295L8.99996 8.15891L3.27401 2.43295C3.16199 2.3176 3.00805 2.2525 2.84725 2.25249C2.6051 2.25255 2.38715 2.39938 2.29614 2.62378C2.20512 2.84817 2.2592 3.10534 2.43289 3.27407L8.15884 9.00003L2.43289 14.726C2.2775 14.8752 2.21491 15.0967 2.26925 15.3052C2.3236 15.5136 2.48638 15.6764 2.69483 15.7307C2.90328 15.7851 3.12482 15.7225 3.27401 15.5671L8.99996 9.84115L14.7259 15.5671C14.8751 15.7225 15.0966 15.7851 15.3051 15.7307C15.5135 15.6764 15.6763 15.5136 15.7307 15.3052C15.785 15.0967 15.7224 14.8752 15.567 14.726L9.84108 9.00003L15.567 3.27407C15.7441 3.10415 15.7986 2.84295 15.7043 2.61638C15.6101 2.38981 15.3864 2.24437 15.141 2.25017L15.141 2.25017Z" fill="#FF1500"/>
</svg>
