<svg width="26" height="26" viewBox="0 0 26 26" fill="none" xmlns="http://www.w3.org/2000/svg">
<path d="M13.5745 21.5193L21.8044 13.2895C23.8265 11.2673 24.1249 7.94058 22.2112 5.81545C21.7319 5.28161 21.1488 4.85102 20.4976 4.54996C19.8463 4.24891 19.1406 4.0837 18.4233 4.06441C17.7061 4.04512 16.9925 4.17217 16.326 4.43779C15.6596 4.70341 15.0542 5.10203 14.5468 5.60935L13 7.15618L11.6645 5.82065C9.64232 3.79849 6.31558 3.50016 4.19045 5.4138C3.65661 5.89313 3.22602 6.47621 2.92496 7.12746C2.62391 7.7787 2.4587 8.48446 2.43941 9.20166C2.42012 9.91887 2.54716 10.6325 2.81279 11.299C3.07841 11.9655 3.47703 12.5708 3.98435 13.0782L12.4255 21.5193C12.5779 21.6717 12.7845 21.7573 13 21.7573C13.2155 21.7573 13.4222 21.6717 13.5745 21.5193V21.5193Z" fill="#FF1500" stroke="#FF1500" stroke-width="2" stroke-linecap="round" stroke-linejoin="round"/>
</svg>
