<svg width="32" height="32" viewBox="0 0 32 32" fill="none" xmlns="http://www.w3.org/2000/svg">
<path fill-rule="evenodd" clip-rule="evenodd" d="M16 0C7.16344 0 0 7.16344 0 16C0 24.8366 7.16344 32 16 32C24.8366 32 32 24.8366 32 16C32 7.16344 24.8366 0 16 0ZM12.4822 7.51823C13.3924 7.4768 13.6833 7.46667 16.0008 7.46667H15.9982C18.3164 7.46667 18.6062 7.4768 19.5164 7.51823C20.4249 7.55983 21.0453 7.70365 21.5893 7.91467C22.1511 8.13245 22.6258 8.42401 23.1005 8.89868C23.5751 9.373 23.8667 9.84909 24.0854 10.4103C24.2951 10.9529 24.4391 11.573 24.4818 12.4815C24.5227 13.3917 24.5334 13.6826 24.5334 16.0001C24.5334 18.3176 24.5227 18.6078 24.4818 19.518C24.4391 20.4261 24.2951 21.0464 24.0854 21.5891C23.8667 22.1502 23.5751 22.6263 23.1005 23.1006C22.6263 23.5753 22.1509 23.8675 21.5899 24.0855C21.0469 24.2965 20.4261 24.4404 19.5177 24.482C18.6074 24.5234 18.3175 24.5335 15.9998 24.5335C13.6824 24.5335 13.3917 24.5234 12.4815 24.482C11.5732 24.4404 10.953 24.2965 10.41 24.0855C9.84912 23.8675 9.37303 23.5753 8.89889 23.1006C8.42439 22.6263 8.13284 22.1502 7.9147 21.5889C7.70385 21.0464 7.56003 20.4263 7.51825 19.5178C7.47701 18.6076 7.46669 18.3176 7.46669 16.0001C7.46669 13.6826 7.47736 13.3915 7.51807 12.4813C7.55896 11.5732 7.70296 10.9529 7.91452 10.4102C8.13319 9.84909 8.42475 9.373 8.89942 8.89868C9.37374 8.42419 9.84983 8.13263 10.4111 7.91467C10.9537 7.70365 11.5738 7.55983 12.4822 7.51823Z" fill="#55109F"/>
<path fill-rule="evenodd" clip-rule="evenodd" d="M15.234 9.00409C15.3827 9.00385 15.5426 9.00393 15.7151 9.004L15.9995 9.00409C18.278 9.00409 18.548 9.01226 19.4478 9.05315C20.2798 9.0912 20.7313 9.23022 21.0321 9.34702C21.4304 9.50169 21.7143 9.68658 22.0128 9.98525C22.3114 10.2839 22.4963 10.5684 22.6513 10.9666C22.7681 11.267 22.9073 11.7186 22.9452 12.5506C22.9861 13.4502 22.995 13.7204 22.995 15.9978C22.995 18.2751 22.9861 18.5453 22.9452 19.4449C22.9072 20.2769 22.7681 20.7285 22.6513 21.0289C22.4967 21.4271 22.3114 21.7107 22.0128 22.0092C21.7141 22.3079 21.4305 22.4928 21.0321 22.6474C20.7317 22.7648 20.2798 22.9034 19.4478 22.9415C18.5482 22.9824 18.278 22.9913 15.9995 22.9913C13.7209 22.9913 13.4509 22.9824 12.5513 22.9415C11.7193 22.9031 11.2678 22.764 10.9668 22.6472C10.5685 22.4926 10.2841 22.3077 9.98543 22.009C9.68676 21.7103 9.50187 21.4266 9.34684 21.0282C9.23004 20.7278 9.09084 20.2762 9.05297 19.4442C9.01208 18.5446 9.00391 18.2744 9.00391 15.9956C9.00391 13.7168 9.01208 13.448 9.05297 12.5485C9.09102 11.7165 9.23004 11.2649 9.34684 10.9641C9.50151 10.5659 9.68676 10.2814 9.98543 9.98276C10.2841 9.68409 10.5685 9.4992 10.9668 9.34418C11.2676 9.22684 11.7193 9.08818 12.5513 9.04995C13.3385 9.0144 13.6436 9.00373 15.234 9.00195V9.00409ZM20.5546 10.421C19.9893 10.421 19.5306 10.8791 19.5306 11.4446C19.5306 12.01 19.9893 12.4687 20.5546 12.4687C21.1199 12.4687 21.5786 12.01 21.5786 11.4446C21.5786 10.8793 21.1199 10.4206 20.5546 10.4206V10.421ZM11.6172 15.9997C11.6172 13.5797 13.5793 11.6175 15.9993 11.6174C18.4195 11.6174 20.3811 13.5796 20.3811 15.9997C20.3811 18.4198 18.4196 20.3811 15.9995 20.3811C13.5794 20.3811 11.6172 18.4198 11.6172 15.9997Z" fill="#55109F"/>
<path d="M16.0007 13.1553C17.5716 13.1553 18.8452 14.4287 18.8452 15.9997C18.8452 17.5706 17.5716 18.8442 16.0007 18.8442C14.4297 18.8442 13.1562 17.5706 13.1562 15.9997C13.1562 14.4287 14.4297 13.1553 16.0007 13.1553V13.1553Z" fill="#55109F"/>
</svg>
