<svg width="66" height="30" viewBox="0 0 66 30" fill="none" xmlns="http://www.w3.org/2000/svg">
<path d="M7.10802 22.7364L6.83797 23.8221H6.75334L6.51085 22.7364L2.87174 11.834H0L5.72921 27.2953H7.84783L13.5057 11.834H10.6482L7.10802 22.7364Z" fill="white"/>
<path d="M17.6473 5.00195C17.4633 5.00183 17.2811 5.03816 17.1111 5.10886C16.9411 5.17957 16.7866 5.28326 16.6565 5.41402C16.5265 5.54477 16.4233 5.70002 16.3529 5.87089C16.2826 6.04175 16.2464 6.22488 16.2466 6.40979V6.46618C16.2417 6.65408 16.2743 6.84106 16.3425 7.01609C16.4107 7.19113 16.513 7.35066 16.6435 7.4853C16.774 7.61993 16.93 7.72693 17.1023 7.79999C17.2746 7.87305 17.4598 7.91069 17.6468 7.91069C17.8338 7.91069 18.0189 7.87305 18.1912 7.79999C18.3635 7.72693 18.5195 7.61993 18.65 7.4853C18.7805 7.35066 18.8829 7.19113 18.9511 7.01609C19.0192 6.84106 19.0519 6.65408 19.047 6.46618V6.40979C19.0471 6.22496 19.011 6.04191 18.9407 5.87111C18.8704 5.70031 18.7673 5.5451 18.6374 5.41436C18.5074 5.28361 18.353 5.1799 18.1831 5.10914C18.0132 5.03838 17.8312 5.00195 17.6473 5.00195Z" fill="white"/>
<path d="M19.0465 11.834H16.2461V27.2953H19.0465V11.834Z" fill="white"/>
<path d="M26.3864 5.00195H23.5859V27.2941H26.3864V5.00195Z" fill="white"/>
<path d="M32.3186 5.00195C31.9472 5.00195 31.5909 5.15028 31.3282 5.4143C31.0655 5.67832 30.918 6.03641 30.918 6.40979V6.46618C30.918 6.83956 31.0655 7.19765 31.3282 7.46167C31.5909 7.72569 31.9472 7.87401 32.3186 7.87401C32.6901 7.87401 33.0464 7.72569 33.3091 7.46167C33.5718 7.19765 33.7193 6.83956 33.7193 6.46618V6.40979C33.7193 6.03641 33.5718 5.67832 33.3091 5.4143C33.0464 5.15028 32.6901 5.00195 32.3186 5.00195Z" fill="white"/>
<path d="M33.7184 11.834H30.918V27.2953H33.7184V11.834Z" fill="white"/>
<path d="M64.6819 9.96764L55.3697 1.14788C54.593 0.410685 53.5652 0 52.497 0C51.4287 0 50.4009 0.410685 49.6243 1.14788C48.8477 1.88449 47.8203 2.29481 46.7525 2.29479H43.0649V5.54438C43.064 6.11767 42.9464 6.68472 42.7194 7.21067C42.4924 7.73662 42.1609 8.21037 41.7451 8.60282L40.3082 9.96382C39.8928 10.3576 39.5618 10.8325 39.3355 11.3594C39.1092 11.8863 38.9924 12.4541 38.9922 13.028V25.5781C38.9916 26.1312 39.0995 26.6789 39.3098 27.19C39.52 27.7011 39.8286 28.1654 40.2177 28.5565C40.6067 28.9476 41.0687 29.2577 41.5772 29.469C42.0857 29.6804 42.6307 29.7889 43.1809 29.7882H61.8092C62.9202 29.7882 63.9857 29.3447 64.7714 28.5552C65.5571 27.7656 65.9986 26.6948 65.9989 25.5781V13.0318C65.9987 12.4578 65.8818 11.8899 65.6553 11.363C65.4289 10.836 65.0976 10.3612 64.6819 9.96764ZM43.5718 23.7918C42.9109 23.7918 42.4582 23.2795 42.4582 22.5971C42.4582 21.8955 42.9337 21.4024 43.5908 21.4024C44.2479 21.4024 44.7043 21.8955 44.7043 22.5971C44.7024 23.2795 44.2678 23.7918 43.5699 23.7918H43.5718ZM51.2741 15.8255C51.0868 15.7843 50.8953 15.7651 50.7036 15.7682C49.5339 15.7682 48.7067 16.6599 48.4765 17.9119C48.4304 18.1688 48.4052 18.429 48.4014 18.6899V23.5834H46.7582V17.2668C46.7582 16.1858 46.7402 15.2597 46.6831 14.3995H48.1361L48.1932 16.2021H48.2683C48.6838 14.9691 49.6832 14.195 50.7977 14.195C50.958 14.1927 51.1178 14.2117 51.2732 14.2514L51.2741 15.8255ZM59.1809 23.5834L59.0858 22.0848H59.0478C58.7399 22.6127 58.2981 23.0489 57.7674 23.3488C57.2368 23.6488 56.6364 23.8016 56.0277 23.7918C54.5937 23.7918 52.8764 22.9956 52.8764 19.7709V14.4024H54.5376V19.4861C54.5376 21.2313 55.0654 22.4069 56.5754 22.4069C57.6889 22.4069 58.463 21.6298 58.7625 20.8901C58.8635 20.617 58.9147 20.3279 58.9137 20.0366V14.4024H60.573V21.0793C60.573 22.0284 60.593 22.8628 60.6491 23.5834H59.1809Z" fill="white"/>
</svg>
