<svg width="52" height="36" viewBox="0 0 52 36" fill="none" xmlns="http://www.w3.org/2000/svg">
<path fill-rule="evenodd" clip-rule="evenodd" d="M26 25.2441C24.2788 26.7412 22.0462 27.6449 19.6066 27.6449C14.1629 27.6449 9.75 23.1454 9.75 17.5949C9.75 12.0445 14.1629 7.54492 19.6066 7.54492C22.0462 7.54492 24.2788 8.44867 26 9.94573C27.7212 8.44867 29.9538 7.54492 32.3934 7.54492C37.8371 7.54492 42.25 12.0445 42.25 17.5949C42.25 23.1454 37.8371 27.6449 32.3934 27.6449C29.9538 27.6449 27.7212 26.7412 26 25.2441Z" fill="#ED0006"/>
<path fill-rule="evenodd" clip-rule="evenodd" d="M26 25.2441C28.1193 23.4008 29.4631 20.6579 29.4631 17.5949C29.4631 14.532 28.1193 11.7891 26 9.94572C27.7212 8.44866 29.9538 7.54492 32.3934 7.54492C37.8371 7.54492 42.25 12.0445 42.25 17.5949C42.25 23.1454 37.8371 27.6449 32.3934 27.6449C29.9538 27.6449 27.7212 26.7412 26 25.2441Z" fill="#F9A000"/>
<path fill-rule="evenodd" clip-rule="evenodd" d="M25.9982 25.2436C28.1175 23.4002 29.4613 20.6574 29.4613 17.5945C29.4613 14.5315 28.1175 11.7887 25.9982 9.94531C23.879 11.7887 22.5352 14.5315 22.5352 17.5945C22.5352 20.6574 23.879 23.4002 25.9982 25.2436Z" fill="#FF5E00"/>
</svg>
