<svg width="24" height="24" viewBox="0 0 24 24" fill="none" xmlns="http://www.w3.org/2000/svg">
<path d="M8.66965 11.7004C9.44762 13.2909 10.7369 14.5743 12.3309 15.345C12.4475 15.4003 12.5765 15.4243 12.7052 15.4145C12.8339 15.4048 12.9579 15.3617 13.0648 15.2895L15.4119 13.7244C15.5157 13.6552 15.6352 13.613 15.7594 13.6016C15.8837 13.5901 16.0088 13.6099 16.1235 13.6591L20.5144 15.5409C20.6636 15.6043 20.7881 15.7144 20.8693 15.8547C20.9504 15.995 20.9838 16.1578 20.9643 16.3187C20.8255 17.4047 20.2956 18.4029 19.4739 19.1264C18.6521 19.8498 17.5948 20.2489 16.5 20.249C13.1185 20.249 9.87548 18.9057 7.48439 16.5146C5.0933 14.1235 3.75 10.8805 3.75 7.49899C3.75006 6.40416 4.14918 5.34688 4.87264 4.52513C5.5961 3.70338 6.59428 3.1735 7.68028 3.03471C7.84117 3.01524 8.00403 3.04859 8.14432 3.12972C8.28461 3.21085 8.39473 3.33538 8.4581 3.48455L10.3416 7.87935C10.3903 7.99302 10.4101 8.11698 10.3994 8.24018C10.3886 8.36339 10.3475 8.48201 10.2798 8.5855L8.72011 10.9686C8.64912 11.0758 8.60716 11.1996 8.59831 11.3279C8.58947 11.4561 8.61405 11.5845 8.66965 11.7004V11.7004Z" stroke="white" stroke-width="1.5" stroke-linecap="round" stroke-linejoin="round"/>
</svg>
