<svg width="32" height="32" viewBox="0 0 32 32" fill="none" xmlns="http://www.w3.org/2000/svg">
<path d="M8.72656 27.4658C9.30078 27.4658 9.80664 27.2607 10.4355 26.8916L26.582 17.5537C27.7578 16.8701 28.25 16.3369 28.25 15.4756C28.25 14.6143 27.7578 14.0947 26.582 13.3975L10.4355 4.05957C9.80664 3.69043 9.30078 3.48535 8.72656 3.48535C7.60547 3.48535 6.8125 4.34668 6.8125 5.7002V25.251C6.8125 26.6182 7.60547 27.4658 8.72656 27.4658ZM9.73828 24.0752C9.66992 24.0752 9.61523 24.0068 9.61523 23.9111V7.04004C9.61523 6.93066 9.66992 6.87598 9.73828 6.87598C9.79297 6.87598 9.84766 6.90332 9.90234 6.94434L24.4219 15.3252C24.4766 15.3662 24.5312 15.4072 24.5312 15.4756C24.5312 15.5439 24.4766 15.585 24.4219 15.626L9.90234 24.0068C9.84766 24.0479 9.79297 24.0752 9.73828 24.0752Z" fill="white"/>
</svg>
