<svg width="28" height="28" viewBox="0 0 28 28" fill="none" xmlns="http://www.w3.org/2000/svg">
<path d="M14.0013 2.33398C10.79 2.33398 8.16797 4.95602 8.16797 8.16732C8.16797 11.3786 10.79 14.0007 14.0013 14.0007C17.2126 14.0007 19.8346 11.3786 19.8346 8.16732C19.8346 4.95602 17.2126 2.33398 14.0013 2.33398ZM14.0013 4.08398C16.2668 4.08398 18.0846 5.90179 18.0846 8.16732C18.0846 10.4328 16.2668 12.2507 14.0013 12.2507C11.7358 12.2507 9.91797 10.4328 9.91797 8.16732C9.91797 5.90179 11.7358 4.08398 14.0013 4.08398Z" fill="white"/>
<path fill-rule="evenodd" clip-rule="evenodd" d="M21.0233 25.6538C22.2949 25.6514 23.334 24.5007 23.3397 23.3286L23.334 21.584C23.3301 18.977 20.2334 17.7439 20.2334 17.7439C18.4655 16.773 16.2281 16.3297 13.9929 16.334C11.7576 16.3383 9.52189 16.7902 7.75781 17.7679C6.25366 18.6015 4.67189 19.834 4.67189 21.584L4.67189 23.3645C4.66735 24.5007 5.72674 25.6833 6.99829 25.6808L21.0233 25.6538ZM19.2746 24.062C20.2293 24.0602 21.0097 23.343 21.0143 22.6128L21.0132 22.0598C21.0109 20.4356 20.0105 19.7387 18.6834 19.1343C17.3564 18.5298 15.6766 18.2542 13.9984 18.2574C12.3201 18.2607 10.6415 18.5427 9.31676 19.1523C8.18724 19.672 6.99934 20.4402 6.99891 21.5305L6.99847 22.6397C6.99478 23.3476 7.78988 24.0841 8.74457 24.0823L19.2746 24.062Z" fill="white"/>
</svg>
