<svg width="52" height="36" viewBox="0 0 52 36" fill="none" xmlns="http://www.w3.org/2000/svg">
<path fill-rule="evenodd" clip-rule="evenodd" d="M14.8555 17.351C14.8555 23.159 19.547 27.8956 25.3555 27.8956C26.0685 27.8956 26.7814 27.8326 27.6006 27.7602C28.5141 27.6795 29.5597 27.587 30.8848 27.5573C32.8954 27.5573 35.0736 28.2904 37.4753 30.4331C37.6987 30.6587 38.0338 30.3767 37.8104 30.0948C35.4088 27.1062 33.2306 26.5423 31.0524 26.0348C28.3715 25.4146 26.9752 23.9485 26.0257 22.2568C25.8582 21.9185 25.7465 21.9749 25.7465 22.426C25.6906 23.1026 25.7465 23.7229 25.8582 24.3432H25.5231C21.7252 24.3432 18.5975 21.1854 18.5975 17.351C18.5975 13.5166 21.7252 10.3589 25.5231 10.3589C29.321 10.3589 32.4486 13.5166 32.4486 17.351C32.4486 17.5766 32.4486 17.8585 32.3928 18.1405C31.8343 18.0277 30.8848 18.0277 30.1587 18.0841C29.8795 18.0841 29.8795 18.1968 30.1029 18.2532C32.3369 18.7043 33.9008 20.114 34.2917 22.7079C34.2917 22.8207 34.3476 22.8207 34.4034 22.7643C35.2971 21.1854 35.8556 19.3246 35.8556 17.351C35.8556 11.4866 31.1641 6.75 25.3555 6.75C19.547 6.75 14.8555 11.543 14.8555 17.351ZM32.9512 21.6929C33.3422 21.8621 33.5097 22.426 33.5097 22.7079C33.5656 23.159 33.4539 23.3846 33.2863 23.3846C33.1188 23.3846 32.8954 23.2154 32.672 22.8207C32.4486 22.426 32.3369 22.0313 32.4486 21.8057C32.6161 21.6929 32.7837 21.6365 32.9512 21.6929ZM30.6613 23.441C30.8847 23.441 31.1639 23.5538 31.4432 23.7793C31.89 24.174 32.0576 24.6251 31.8342 24.9635C31.7225 25.1326 31.4432 25.2454 31.2198 25.2454C30.9405 25.2454 30.6613 25.1326 30.4937 24.9635C30.0469 24.5687 29.9352 24.0049 30.2145 23.6665C30.2703 23.5538 30.4379 23.441 30.6613 23.441Z" fill="#F28A1A"/>
</svg>
