<svg width="32" height="32" viewBox="0 0 32 32" fill="none" xmlns="http://www.w3.org/2000/svg">
<path d="M15.3331 3.23487L5.25127 5.25124L3.2349 15.333C3.20262 15.4945 3.21069 15.6614 3.25839 15.8189C3.3061 15.9765 3.39197 16.1199 3.50838 16.2363L16.565 29.2929C16.6578 29.3857 16.7681 29.4594 16.8894 29.5096C17.0107 29.5599 17.1408 29.5858 17.2721 29.5858C17.4034 29.5858 17.5334 29.5599 17.6548 29.5096C17.7761 29.4594 17.8863 29.3857 17.9792 29.2929L29.2929 17.9792C29.3858 17.8863 29.4594 17.7761 29.5097 17.6547C29.5599 17.5334 29.5858 17.4034 29.5858 17.2721C29.5858 17.1407 29.5599 17.0107 29.5097 16.8894C29.4594 16.768 29.3858 16.6578 29.2929 16.5649L16.2363 3.50835C16.1199 3.39194 15.9765 3.30607 15.819 3.25836C15.6614 3.21066 15.4945 3.20259 15.3331 3.23487V3.23487Z" stroke="#050733" stroke-width="1.5" stroke-linecap="round" stroke-linejoin="round"/>
<path d="M10.5 11.75C11.1904 11.75 11.75 11.1904 11.75 10.5C11.75 9.80964 11.1904 9.25 10.5 9.25C9.80964 9.25 9.25 9.80964 9.25 10.5C9.25 11.1904 9.80964 11.75 10.5 11.75Z" fill="#050733"/>
</svg>
