<svg width="152" height="40" viewBox="0 0 152 40" fill="none" xmlns="http://www.w3.org/2000/svg">
<g clip-path="url(#clip0)">
<path d="M9.54505 30.528L9.1824 31.986H9.06876L8.74314 30.528L3.85633 15.8877H0L7.6935 36.6501H10.5385L18.1362 15.8877H14.2991L9.54505 30.528Z" fill="#333333"/>
<path d="M23.7019 6.71484C23.4548 6.71468 23.2102 6.76346 22.9819 6.85841C22.7536 6.95336 22.5462 7.0926 22.3715 7.26819C22.1968 7.44377 22.0583 7.65225 21.9638 7.88169C21.8693 8.11114 21.8208 8.35705 21.821 8.60537V8.68109C21.8144 8.93342 21.8582 9.1845 21.9498 9.41954C22.0413 9.65459 22.1788 9.86882 22.354 10.0496C22.5293 10.2304 22.7387 10.3741 22.9701 10.4722C23.2015 10.5703 23.4501 10.6209 23.7012 10.6209C23.9524 10.6209 24.2009 10.5703 24.4323 10.4722C24.6637 10.3741 24.8732 10.2304 25.0485 10.0496C25.2237 9.86882 25.3612 9.65459 25.4527 9.41954C25.5443 9.1845 25.5881 8.93342 25.5815 8.68109V8.60537C25.5817 8.35716 25.5332 8.11135 25.4388 7.88199C25.3444 7.65263 25.206 7.44421 25.0314 7.26864C24.8569 7.09307 24.6496 6.9538 24.4215 6.85878C24.1933 6.76375 23.9488 6.71484 23.7019 6.71484V6.71484Z" fill="#333333"/>
<path d="M25.5809 15.8877H21.8203V36.6501H25.5809V15.8877Z" fill="#333333"/>
<path d="M35.4324 6.71484H31.6719V36.65H35.4324V6.71484Z" fill="#333333"/>
<path d="M43.4043 6.71484C42.9055 6.71484 42.4271 6.91402 42.0743 7.26856C41.7216 7.6231 41.5234 8.10397 41.5234 8.60536V8.68109C41.5234 9.18248 41.7216 9.66334 42.0743 10.0179C42.4271 10.3724 42.9055 10.5716 43.4043 10.5716C43.9032 10.5716 44.3816 10.3724 44.7344 10.0179C45.0871 9.66334 45.2853 9.18248 45.2853 8.68109V8.60536C45.2853 8.10397 45.0871 7.6231 44.7344 7.26856C44.3816 6.91402 43.9032 6.71484 43.4043 6.71484V6.71484Z" fill="#333333"/>
<path d="M45.284 15.8877H41.5234V36.6501H45.284V15.8877Z" fill="#333333"/>
<path d="M86.8569 13.3841L74.352 1.54046C73.309 0.550514 71.9288 -0.000976563 70.4943 -0.000976562C69.0599 -0.000976563 67.6797 0.550514 66.6367 1.54046C65.5939 2.52962 64.2143 3.08062 62.7804 3.0806H57.8285V7.44433C57.8272 8.21418 57.6693 8.97563 57.3645 9.68191C57.0597 10.3882 56.6144 11.0244 56.0561 11.5514L54.1267 13.379C53.5688 13.9078 53.1243 14.5455 52.8204 15.253C52.5166 15.9606 52.3597 16.7231 52.3594 17.4937V34.3467C52.3585 35.0894 52.5035 35.8249 52.7858 36.5113C53.0682 37.1976 53.4825 37.8211 54.005 38.3463C54.5275 38.8715 55.1479 39.2879 55.8307 39.5717C56.5135 39.8555 57.2454 40.0012 57.9843 40.0003H82.9993C84.4913 40.0003 85.9221 39.4047 86.9772 38.3445C88.0322 37.2843 88.6251 35.8463 88.6255 34.3467V17.4989C88.6253 16.7281 88.4683 15.9655 88.1641 15.2579C87.86 14.5503 87.4152 13.9126 86.8569 13.3841V13.3841ZM58.5091 31.948C57.6216 31.948 57.0138 31.26 57.0138 30.3436C57.0138 29.4016 57.6523 28.7393 58.5346 28.7393C59.417 28.7393 60.0299 29.4016 60.0299 30.3436C60.0273 31.26 59.4438 31.948 58.5065 31.948H58.5091ZM68.8522 21.2504C68.6006 21.1951 68.3435 21.1693 68.0861 21.1734C66.5154 21.1734 65.4045 22.3708 65.0955 24.0522C65.0335 24.3971 64.9998 24.7465 64.9946 25.0969V31.6682H62.7881V23.1858C62.7881 21.7343 62.7638 20.4906 62.6872 19.3355H64.6383L64.715 21.7561H64.8158C65.3739 20.1004 66.7159 19.0608 68.2125 19.0608C68.4277 19.0578 68.6423 19.0833 68.8509 19.1366L68.8522 21.2504ZM79.4699 31.6682L79.3422 29.6557H79.2911C78.8777 30.3646 78.2844 30.9504 77.5718 31.3531C76.8592 31.7559 76.053 31.9612 75.2356 31.948C73.31 31.948 71.0038 30.8788 71.0038 26.5485V19.3393H73.2346V26.166C73.2346 28.5096 73.9433 30.0882 75.9711 30.0882C77.4664 30.0882 78.5058 29.0448 78.908 28.0514C79.0436 27.6847 79.1124 27.2965 79.1111 26.9053V19.3393H81.3393V28.3055C81.3393 29.58 81.3661 30.7004 81.4415 31.6682H79.4699Z" fill="url(#paint0_linear)"/>
</g>
<path d="M101.578 20L99.184 13.826V20H98.19V12.678H99.856L101.928 18.152L104.056 12.678H105.68V20H104.532V13.826L102.11 20H101.578ZM109.993 19.202C110.628 19.202 111.146 19.048 111.547 18.74C111.958 18.4227 112.163 17.9887 112.163 17.438V16.528H111.155C109.456 16.528 108.607 17.0087 108.607 17.97C108.607 18.7913 109.069 19.202 109.993 19.202ZM109.881 20.126C109.162 20.126 108.574 19.9487 108.117 19.594C107.669 19.23 107.445 18.6887 107.445 17.97C107.445 17.186 107.79 16.612 108.481 16.248C109.181 15.884 110.058 15.702 111.113 15.702H112.163V15.17C112.163 14.582 112.042 14.162 111.799 13.91C111.556 13.6487 111.155 13.518 110.595 13.518C109.587 13.518 109.027 13.9567 108.915 14.834H107.753C107.828 14.05 108.136 13.476 108.677 13.112C109.218 12.7387 109.876 12.552 110.651 12.552C112.434 12.552 113.325 13.4247 113.325 15.17V20H112.163V19.076C111.603 19.776 110.842 20.126 109.881 20.126ZM120.256 13.658H116.77V20H115.608V12.678H120.256V13.658ZM123.733 19.202C124.368 19.202 124.886 19.048 125.287 18.74C125.698 18.4227 125.903 17.9887 125.903 17.438V16.528H124.895C123.197 16.528 122.347 17.0087 122.347 17.97C122.347 18.7913 122.809 19.202 123.733 19.202ZM123.621 20.126C122.903 20.126 122.315 19.9487 121.857 19.594C121.409 19.23 121.185 18.6887 121.185 17.97C121.185 17.186 121.531 16.612 122.221 16.248C122.921 15.884 123.799 15.702 124.853 15.702H125.903V15.17C125.903 14.582 125.782 14.162 125.539 13.91C125.297 13.6487 124.895 13.518 124.335 13.518C123.327 13.518 122.767 13.9567 122.655 14.834H121.493C121.568 14.05 121.876 13.476 122.417 13.112C122.959 12.7387 123.617 12.552 124.391 12.552C126.174 12.552 127.065 13.4247 127.065 15.17V20H125.903V19.076C125.343 19.776 124.583 20.126 123.621 20.126ZM134.066 14.54V14.582C134.066 14.946 133.959 15.282 133.744 15.59C133.539 15.8887 133.245 16.0753 132.862 16.15C133.338 16.234 133.716 16.416 133.996 16.696C134.276 16.976 134.416 17.3447 134.416 17.802V17.844C134.416 18.5253 134.169 19.076 133.674 19.496C133.179 19.916 132.498 20.126 131.63 20.126C130.753 20.126 130.062 19.916 129.558 19.496C129.054 19.076 128.783 18.4927 128.746 17.746H129.88C129.973 18.6887 130.557 19.16 131.63 19.16C132.675 19.16 133.198 18.7447 133.198 17.914V17.872C133.198 17.088 132.694 16.696 131.686 16.696H130.58V15.772H131.49C131.975 15.772 132.321 15.6833 132.526 15.506C132.741 15.3287 132.848 15.0393 132.848 14.638V14.596C132.848 13.8773 132.428 13.518 131.588 13.518C130.776 13.518 130.291 13.9007 130.132 14.666H129.012C129.189 13.2567 130.071 12.552 131.658 12.552C132.349 12.552 132.923 12.7293 133.38 13.084C133.837 13.4293 134.066 13.9147 134.066 14.54ZM137.428 20H136.266V12.678H137.428V18.32L141.166 12.678H142.328V20H141.166V14.358L137.428 20ZM149.297 20V16.738H145.699V20H144.537V12.678H145.699V15.758H149.297V12.678H150.459V20H149.297ZM102.586 36L99.338 32.262V36H98.176V28.678H99.338V32.094L102.376 28.678H103.734L100.598 32.122L104 36H102.586ZM108.159 36.126C107.123 36.126 106.265 35.776 105.583 35.076C104.911 34.3667 104.575 33.4753 104.575 32.402V32.29C104.575 31.198 104.911 30.302 105.583 29.602C106.265 28.902 107.128 28.552 108.173 28.552C109.219 28.552 110.077 28.902 110.749 29.602C111.431 30.2927 111.771 31.184 111.771 32.276V32.388C111.771 33.4893 111.431 34.39 110.749 35.09C110.068 35.7807 109.205 36.126 108.159 36.126ZM108.173 35.16C108.901 35.16 109.48 34.908 109.909 34.404C110.348 33.9 110.567 33.2327 110.567 32.402V32.304C110.567 31.4547 110.348 30.778 109.909 30.274C109.48 29.77 108.901 29.518 108.173 29.518C107.436 29.518 106.853 29.77 106.423 30.274C105.994 30.778 105.779 31.45 105.779 32.29V32.402C105.779 33.242 105.994 33.914 106.423 34.418C106.853 34.9127 107.436 35.16 108.173 35.16ZM113.571 36V28.678H116.133C117.85 28.678 118.709 29.2987 118.709 30.54V30.582C118.709 30.9367 118.611 31.2633 118.415 31.562C118.219 31.8513 117.925 32.0473 117.533 32.15C118.55 32.3647 119.059 32.9153 119.059 33.802V33.844C119.059 34.5533 118.825 35.09 118.359 35.454C117.901 35.818 117.262 36 116.441 36H113.571ZM116.119 29.602H114.733V31.772H116.133C116.618 31.772 116.963 31.6833 117.169 31.506C117.383 31.3287 117.491 31.0393 117.491 30.638V30.596C117.491 30.2227 117.379 29.966 117.155 29.826C116.931 29.6767 116.585 29.602 116.119 29.602ZM116.329 32.696H114.733V35.076H116.329C116.842 35.076 117.22 34.9827 117.463 34.796C117.715 34.6093 117.841 34.3153 117.841 33.914V33.872C117.841 33.088 117.337 32.696 116.329 32.696ZM124.44 35.16C125.168 35.16 125.724 34.922 126.106 34.446C126.489 33.97 126.68 33.2887 126.68 32.402V32.29C126.68 31.4033 126.466 30.722 126.036 30.246C125.616 29.7607 125.08 29.518 124.426 29.518C123.717 29.518 123.138 29.756 122.69 30.232C122.252 30.6987 122.032 31.3847 122.032 32.29V32.402C122.032 33.3073 122.247 33.9933 122.676 34.46C123.115 34.9267 123.703 35.16 124.44 35.16ZM120.912 38.548V28.678H122.074V29.91C122.298 29.5367 122.639 29.2193 123.096 28.958C123.554 28.6873 124.039 28.552 124.552 28.552C125.532 28.552 126.33 28.888 126.946 29.56C127.572 30.2227 127.884 31.114 127.884 32.234V32.346C127.884 33.4753 127.576 34.39 126.96 35.09C126.354 35.7807 125.551 36.126 124.552 36.126C123.983 36.126 123.484 36.0047 123.054 35.762C122.625 35.51 122.298 35.188 122.074 34.796V38.548H120.912ZM132.728 36.126C131.692 36.126 130.833 35.776 130.152 35.076C129.48 34.3667 129.144 33.4753 129.144 32.402V32.29C129.144 31.198 129.48 30.302 130.152 29.602C130.833 28.902 131.696 28.552 132.742 28.552C133.787 28.552 134.646 28.902 135.318 29.602C135.999 30.2927 136.34 31.184 136.34 32.276V32.388C136.34 33.4893 135.999 34.39 135.318 35.09C134.636 35.7807 133.773 36.126 132.728 36.126ZM132.742 35.16C133.47 35.16 134.048 34.908 134.478 34.404C134.916 33.9 135.136 33.2327 135.136 32.402V32.304C135.136 31.4547 134.916 30.778 134.478 30.274C134.048 29.77 133.47 29.518 132.742 29.518C132.004 29.518 131.421 29.77 130.992 30.274C130.562 30.778 130.348 31.45 130.348 32.29V32.402C130.348 33.242 130.562 33.914 130.992 34.418C131.421 34.9127 132.004 35.16 132.742 35.16ZM138.139 36V28.678H140.701C142.418 28.678 143.277 29.2987 143.277 30.54V30.582C143.277 30.9367 143.179 31.2633 142.983 31.562C142.787 31.8513 142.493 32.0473 142.101 32.15C143.118 32.3647 143.627 32.9153 143.627 33.802V33.844C143.627 34.5533 143.394 35.09 142.927 35.454C142.47 35.818 141.83 36 141.009 36H138.139ZM140.687 29.602H139.301V31.772H140.701C141.186 31.772 141.532 31.6833 141.737 31.506C141.952 31.3287 142.059 31.0393 142.059 30.638V30.596C142.059 30.2227 141.947 29.966 141.723 29.826C141.499 29.6767 141.154 29.602 140.687 29.602ZM140.897 32.696H139.301V35.076H140.897C141.41 35.076 141.788 34.9827 142.031 34.796C142.283 34.6093 142.409 34.3153 142.409 33.914V33.872C142.409 33.088 141.905 32.696 140.897 32.696Z" fill="#333333"/>
<defs>
<linearGradient id="paint0_linear" x1="62.1626" y1="-0.000981872" x2="79.0998" y2="0.116863" gradientUnits="userSpaceOnUse">
<stop stop-color="#7F10AD"/>
<stop offset="0.996" stop-color="#540F9E"/>
</linearGradient>
<clipPath id="clip0">
<rect width="148" height="40" fill="white"/>
</clipPath>
</defs>
</svg>
