<svg width="156" height="44" viewBox="0 0 156 44" fill="none" xmlns="http://www.w3.org/2000/svg">
<g clip-path="url(#clip0)">
<path d="M9.54505 30.527L9.1824 31.985H9.06876L8.74314 30.527L3.85633 15.8867H0L7.6935 36.6491H10.5385L18.1362 15.8867H14.2991L9.54505 30.527Z" fill="white"/>
<path d="M23.7019 6.71484C23.4548 6.71468 23.2102 6.76346 22.9819 6.85841C22.7536 6.95336 22.5462 7.0926 22.3715 7.26819C22.1968 7.44377 22.0583 7.65225 21.9638 7.88169C21.8693 8.11114 21.8208 8.35705 21.821 8.60537V8.68109C21.8144 8.93342 21.8582 9.1845 21.9498 9.41954C22.0413 9.65459 22.1788 9.86882 22.354 10.0496C22.5293 10.2304 22.7387 10.3741 22.9701 10.4722C23.2015 10.5703 23.4501 10.6209 23.7012 10.6209C23.9524 10.6209 24.2009 10.5703 24.4323 10.4722C24.6637 10.3741 24.8732 10.2304 25.0485 10.0496C25.2237 9.86882 25.3612 9.65459 25.4527 9.41954C25.5443 9.1845 25.5881 8.93342 25.5815 8.68109V8.60537C25.5817 8.35716 25.5332 8.11135 25.4388 7.88199C25.3444 7.65263 25.206 7.44421 25.0314 7.26864C24.8569 7.09307 24.6496 6.9538 24.4215 6.85878C24.1933 6.76375 23.9488 6.71484 23.7019 6.71484V6.71484Z" fill="white"/>
<path d="M25.5809 15.8867H21.8203V36.6491H25.5809V15.8867Z" fill="white"/>
<path d="M35.4324 6.71484H31.6719V36.65H35.4324V6.71484Z" fill="white"/>
<path d="M43.4043 6.71484C42.9055 6.71484 42.4271 6.91402 42.0743 7.26856C41.7216 7.6231 41.5234 8.10397 41.5234 8.60536V8.68109C41.5234 9.18248 41.7216 9.66334 42.0743 10.0179C42.4271 10.3724 42.9055 10.5716 43.4043 10.5716C43.9032 10.5716 44.3816 10.3724 44.7344 10.0179C45.0871 9.66334 45.2853 9.18248 45.2853 8.68109V8.60536C45.2853 8.10397 45.0871 7.6231 44.7344 7.26856C44.3816 6.91402 43.9032 6.71484 43.4043 6.71484V6.71484Z" fill="white"/>
<path d="M45.284 15.8867H41.5234V36.6491H45.284V15.8867Z" fill="white"/>
<path d="M86.8569 13.3832L74.352 1.53948C73.309 0.549538 71.9288 -0.00195313 70.4943 -0.00195312C69.0599 -0.00195313 67.6797 0.549538 66.6367 1.53948C65.5939 2.52864 64.2143 3.07964 62.7804 3.07962H57.8285V7.44335C57.8272 8.2132 57.6693 8.97466 57.3645 9.68093C57.0597 10.3872 56.6144 11.0234 56.0561 11.5504L54.1267 13.378C53.5688 13.9068 53.1243 14.5445 52.8204 15.252C52.5166 15.9596 52.3597 16.7221 52.3594 17.4928V34.3457C52.3585 35.0884 52.5035 35.824 52.7858 36.5103C53.0682 37.1966 53.4825 37.8202 54.005 38.3453C54.5275 38.8705 55.1479 39.2869 55.8307 39.5707C56.5135 39.8545 57.2454 40.0002 57.9843 39.9993H82.9993C84.4913 39.9993 85.9221 39.4037 86.9772 38.3435C88.0322 37.2833 88.6251 35.8453 88.6255 34.3457V17.4979C88.6253 16.7271 88.4683 15.9645 88.1641 15.2569C87.86 14.5493 87.4152 13.9117 86.8569 13.3832V13.3832ZM58.5091 31.947C57.6216 31.947 57.0138 31.259 57.0138 30.3427C57.0138 29.4006 57.6523 28.7384 58.5346 28.7384C59.417 28.7384 60.0299 29.4006 60.0299 30.3427C60.0273 31.259 59.4438 31.947 58.5065 31.947H58.5091ZM68.8522 21.2494C68.6006 21.1941 68.3435 21.1683 68.0861 21.1724C66.5154 21.1724 65.4045 22.3699 65.0955 24.0512C65.0335 24.3961 64.9998 24.7455 64.9946 25.0959V31.6672H62.7881V23.1849C62.7881 21.7333 62.7638 20.4896 62.6872 19.3345H64.6383L64.715 21.7551H64.8158C65.3739 20.0994 66.7159 19.0599 68.2125 19.0599C68.4277 19.0568 68.6423 19.0823 68.8509 19.1356L68.8522 21.2494ZM79.4699 31.6672L79.3422 29.6547H79.2911C78.8777 30.3636 78.2844 30.9494 77.5718 31.3522C76.8592 31.7549 76.053 31.9602 75.2356 31.947C73.31 31.947 71.0038 30.8779 71.0038 26.5475V19.3384H73.2346V26.165C73.2346 28.5086 73.9433 30.0873 75.9711 30.0873C77.4664 30.0873 78.5058 29.0438 78.908 28.0504C79.0436 27.6837 79.1124 27.2955 79.1111 26.9043V19.3384H81.3393V28.3045C81.3393 29.579 81.3661 30.6995 81.4415 31.6672H79.4699Z" fill="white"/>
</g>
<path d="M105.539 24L103.145 17.826V24H102.151V16.678H103.817L105.889 22.152L108.017 16.678H109.641V24H108.493V17.826L106.071 24H105.539ZM113.954 23.202C114.589 23.202 115.107 23.048 115.508 22.74C115.919 22.4227 116.124 21.9887 116.124 21.438V20.528H115.116C113.417 20.528 112.568 21.0087 112.568 21.97C112.568 22.7913 113.03 23.202 113.954 23.202ZM113.842 24.126C113.123 24.126 112.535 23.9487 112.078 23.594C111.63 23.23 111.406 22.6887 111.406 21.97C111.406 21.186 111.751 20.612 112.442 20.248C113.142 19.884 114.019 19.702 115.074 19.702H116.124V19.17C116.124 18.582 116.003 18.162 115.76 17.91C115.517 17.6487 115.116 17.518 114.556 17.518C113.548 17.518 112.988 17.9567 112.876 18.834H111.714C111.789 18.05 112.097 17.476 112.638 17.112C113.179 16.7387 113.837 16.552 114.612 16.552C116.395 16.552 117.286 17.4247 117.286 19.17V24H116.124V23.076C115.564 23.776 114.803 24.126 113.842 24.126ZM124.217 17.658H120.731V24H119.569V16.678H124.217V17.658ZM127.694 23.202C128.329 23.202 128.847 23.048 129.248 22.74C129.659 22.4227 129.864 21.9887 129.864 21.438V20.528H128.856C127.158 20.528 126.308 21.0087 126.308 21.97C126.308 22.7913 126.77 23.202 127.694 23.202ZM127.582 24.126C126.864 24.126 126.276 23.9487 125.818 23.594C125.37 23.23 125.146 22.6887 125.146 21.97C125.146 21.186 125.492 20.612 126.182 20.248C126.882 19.884 127.76 19.702 128.814 19.702H129.864V19.17C129.864 18.582 129.743 18.162 129.5 17.91C129.258 17.6487 128.856 17.518 128.296 17.518C127.288 17.518 126.728 17.9567 126.616 18.834H125.454C125.529 18.05 125.837 17.476 126.378 17.112C126.92 16.7387 127.578 16.552 128.352 16.552C130.135 16.552 131.026 17.4247 131.026 19.17V24H129.864V23.076C129.304 23.776 128.544 24.126 127.582 24.126ZM138.027 18.54V18.582C138.027 18.946 137.919 19.282 137.705 19.59C137.499 19.8887 137.205 20.0753 136.823 20.15C137.299 20.234 137.677 20.416 137.957 20.696C138.237 20.976 138.377 21.3447 138.377 21.802V21.844C138.377 22.5253 138.129 23.076 137.635 23.496C137.14 23.916 136.459 24.126 135.591 24.126C134.713 24.126 134.023 23.916 133.519 23.496C133.015 23.076 132.744 22.4927 132.707 21.746H133.841C133.934 22.6887 134.517 23.16 135.591 23.16C136.636 23.16 137.159 22.7447 137.159 21.914V21.872C137.159 21.088 136.655 20.696 135.647 20.696H134.541V19.772H135.451C135.936 19.772 136.281 19.6833 136.487 19.506C136.701 19.3287 136.809 19.0393 136.809 18.638V18.596C136.809 17.8773 136.389 17.518 135.549 17.518C134.737 17.518 134.251 17.9007 134.093 18.666H132.973C133.15 17.2567 134.032 16.552 135.619 16.552C136.309 16.552 136.883 16.7293 137.341 17.084C137.798 17.4293 138.027 17.9147 138.027 18.54ZM141.389 24H140.227V16.678H141.389V22.32L145.127 16.678H146.289V24H145.127V18.358L141.389 24ZM153.258 24V20.738H149.66V24H148.498V16.678H149.66V19.758H153.258V16.678H154.42V24H153.258ZM106.547 40L103.299 36.262V40H102.137V32.678H103.299V36.094L106.337 32.678H107.695L104.559 36.122L107.961 40H106.547ZM112.12 40.126C111.084 40.126 110.226 39.776 109.544 39.076C108.872 38.3667 108.536 37.4753 108.536 36.402V36.29C108.536 35.198 108.872 34.302 109.544 33.602C110.226 32.902 111.089 32.552 112.134 32.552C113.18 32.552 114.038 32.902 114.71 33.602C115.392 34.2927 115.732 35.184 115.732 36.276V36.388C115.732 37.4893 115.392 38.39 114.71 39.09C114.029 39.7807 113.166 40.126 112.12 40.126ZM112.134 39.16C112.862 39.16 113.441 38.908 113.87 38.404C114.309 37.9 114.528 37.2327 114.528 36.402V36.304C114.528 35.4547 114.309 34.778 113.87 34.274C113.441 33.77 112.862 33.518 112.134 33.518C111.397 33.518 110.814 33.77 110.384 34.274C109.955 34.778 109.74 35.45 109.74 36.29V36.402C109.74 37.242 109.955 37.914 110.384 38.418C110.814 38.9127 111.397 39.16 112.134 39.16ZM117.531 40V32.678H120.093C121.811 32.678 122.669 33.2987 122.669 34.54V34.582C122.669 34.9367 122.571 35.2633 122.375 35.562C122.179 35.8513 121.885 36.0473 121.493 36.15C122.511 36.3647 123.019 36.9153 123.019 37.802V37.844C123.019 38.5533 122.786 39.09 122.319 39.454C121.862 39.818 121.223 40 120.401 40H117.531ZM120.079 33.602H118.693V35.772H120.093C120.579 35.772 120.924 35.6833 121.129 35.506C121.344 35.3287 121.451 35.0393 121.451 34.638V34.596C121.451 34.2227 121.339 33.966 121.115 33.826C120.891 33.6767 120.546 33.602 120.079 33.602ZM120.289 36.696H118.693V39.076H120.289C120.803 39.076 121.181 38.9827 121.423 38.796C121.675 38.6093 121.801 38.3153 121.801 37.914V37.872C121.801 37.088 121.297 36.696 120.289 36.696ZM128.401 39.16C129.129 39.16 129.685 38.922 130.067 38.446C130.45 37.97 130.641 37.2887 130.641 36.402V36.29C130.641 35.4033 130.427 34.722 129.997 34.246C129.577 33.7607 129.041 33.518 128.387 33.518C127.678 33.518 127.099 33.756 126.651 34.232C126.213 34.6987 125.993 35.3847 125.993 36.29V36.402C125.993 37.3073 126.208 37.9933 126.637 38.46C127.076 38.9267 127.664 39.16 128.401 39.16ZM124.873 42.548V32.678H126.035V33.91C126.259 33.5367 126.6 33.2193 127.057 32.958C127.515 32.6873 128 32.552 128.513 32.552C129.493 32.552 130.291 32.888 130.907 33.56C131.533 34.2227 131.845 35.114 131.845 36.234V36.346C131.845 37.4753 131.537 38.39 130.921 39.09C130.315 39.7807 129.512 40.126 128.513 40.126C127.944 40.126 127.445 40.0047 127.015 39.762C126.586 39.51 126.259 39.188 126.035 38.796V42.548H124.873ZM136.689 40.126C135.653 40.126 134.794 39.776 134.113 39.076C133.441 38.3667 133.105 37.4753 133.105 36.402V36.29C133.105 35.198 133.441 34.302 134.113 33.602C134.794 32.902 135.657 32.552 136.703 32.552C137.748 32.552 138.607 32.902 139.279 33.602C139.96 34.2927 140.301 35.184 140.301 36.276V36.388C140.301 37.4893 139.96 38.39 139.279 39.09C138.597 39.7807 137.734 40.126 136.689 40.126ZM136.703 39.16C137.431 39.16 138.009 38.908 138.439 38.404C138.877 37.9 139.097 37.2327 139.097 36.402V36.304C139.097 35.4547 138.877 34.778 138.439 34.274C138.009 33.77 137.431 33.518 136.703 33.518C135.965 33.518 135.382 33.77 134.953 34.274C134.523 34.778 134.309 35.45 134.309 36.29V36.402C134.309 37.242 134.523 37.914 134.953 38.418C135.382 38.9127 135.965 39.16 136.703 39.16ZM142.1 40V32.678H144.662C146.379 32.678 147.238 33.2987 147.238 34.54V34.582C147.238 34.9367 147.14 35.2633 146.944 35.562C146.748 35.8513 146.454 36.0473 146.062 36.15C147.079 36.3647 147.588 36.9153 147.588 37.802V37.844C147.588 38.5533 147.354 39.09 146.888 39.454C146.43 39.818 145.791 40 144.97 40H142.1ZM144.648 33.602H143.262V35.772H144.662C145.147 35.772 145.492 35.6833 145.698 35.506C145.912 35.3287 146.02 35.0393 146.02 34.638V34.596C146.02 34.2227 145.908 33.966 145.684 33.826C145.46 33.6767 145.114 33.602 144.648 33.602ZM144.858 36.696H143.262V39.076H144.858C145.371 39.076 145.749 38.9827 145.992 38.796C146.244 38.6093 146.37 38.3153 146.37 37.914V37.872C146.37 37.088 145.866 36.696 144.858 36.696Z" fill="white"/>
<defs>
<clipPath id="clip0">
<rect width="148" height="40" fill="white"/>
</clipPath>
</defs>
</svg>
