<svg width="20" height="16" viewBox="0 0 20 16" fill="none" xmlns="http://www.w3.org/2000/svg">
<path d="M0.759871 8.03212e-05C0.489682 -0.00399927 0.238366 0.14758 0.102157 0.396775C-0.0340523 0.645971 -0.0340523 0.954175 0.102157 1.20337C0.238366 1.45257 0.489682 1.60415 0.759871 1.60007H19.2401C19.5103 1.60415 19.7616 1.45257 19.8978 1.20337C20.0341 0.954175 20.0341 0.645971 19.8978 0.396775C19.7616 0.14758 19.5103 -0.00399927 19.2401 8.03212e-05H0.759871ZM0.759871 7.20001C0.489682 7.19593 0.238366 7.34751 0.102157 7.5967C-0.0340523 7.8459 -0.0340523 8.1541 0.102157 8.4033C0.238366 8.65249 0.489682 8.80407 0.759871 8.79999H19.2401C19.5103 8.80407 19.7616 8.65249 19.8978 8.4033C20.0341 8.1541 20.0341 7.8459 19.8978 7.5967C19.7616 7.34751 19.5103 7.19593 19.2401 7.20001H0.759871ZM0.759871 14.3999C0.489682 14.3959 0.238366 14.5474 0.102157 14.7966C-0.0340523 15.0458 -0.0340523 15.354 0.102157 15.6032C0.238366 15.8524 0.489682 16.004 0.759871 15.9999H19.2401C19.5103 16.004 19.7616 15.8524 19.8978 15.6032C20.0341 15.354 20.0341 15.0458 19.8978 14.7966C19.7616 14.5474 19.5103 14.3959 19.2401 14.3999H0.759871Z" fill="white"/>
</svg>
