<svg width="8" height="8" viewBox="0 0 8 8" fill="none" xmlns="http://www.w3.org/2000/svg">
<g clip-path="url(#clip0)">
<mask id="path-1-inside-1" fill="white">
<path d="M1.99616 0.752632C1.99772 0.818655 2.02534 0.88138 2.07299 0.927111L5.14623 4.00035L2.07299 7.0736C2.0245 7.12068 1.99714 7.18538 1.99714 7.25296C1.99717 7.35473 2.05888 7.44633 2.15319 7.48459C2.2475 7.52284 2.35559 7.50011 2.4265 7.42711L5.6765 4.17711C5.77409 4.07948 5.77409 3.92123 5.6765 3.8236L2.4265 0.573596C2.35508 0.499186 2.2453 0.476266 2.15008 0.515882C2.05485 0.5555 1.99373 0.649524 1.99616 0.752632L1.99616 0.752632Z"/>
</mask>
<path d="M1.99616 0.752632C1.99772 0.818655 2.02534 0.88138 2.07299 0.927111L5.14623 4.00035L2.07299 7.0736C2.0245 7.12068 1.99714 7.18538 1.99714 7.25296C1.99717 7.35473 2.05888 7.44633 2.15319 7.48459C2.2475 7.52284 2.35559 7.50011 2.4265 7.42711L5.6765 4.17711C5.77409 4.07948 5.77409 3.92123 5.6765 3.8236L2.4265 0.573596C2.35508 0.499186 2.2453 0.476266 2.15008 0.515882C2.05485 0.5555 1.99373 0.649524 1.99616 0.752632L1.99616 0.752632Z" fill="#55109F"/>
<path d="M1.99616 0.752632L2.99589 0.729025L2.97283 -0.247368L1.99616 -0.247368L1.99616 0.752632ZM2.07299 0.927111L2.78009 0.220005L2.77284 0.212755L2.76545 0.205656L2.07299 0.927111ZM5.14623 4.00035L5.85334 4.70746L6.56044 4.00035L5.85334 3.29325L5.14623 4.00035ZM2.07299 7.0736L2.76963 7.79101L2.7749 7.7859L2.78009 7.7807L2.07299 7.0736ZM1.99714 7.25296L0.997141 7.25292L0.997141 7.2532L1.99714 7.25296ZM2.15319 7.48459L1.77732 8.41126L1.77732 8.41126L2.15319 7.48459ZM2.4265 7.42711L1.7194 6.72L1.71427 6.72513L1.70923 6.73032L2.4265 7.42711ZM5.6765 4.17711L6.38361 4.88422L6.38376 4.88407L5.6765 4.17711ZM5.6765 3.8236L6.38376 3.11664L6.38361 3.11649L5.6765 3.8236ZM2.4265 0.573596L1.70504 1.26605L1.71214 1.27345L1.7194 1.2807L2.4265 0.573596ZM2.15008 0.515882L1.76596 -0.407402L1.76596 -0.407401L2.15008 0.515882ZM1.99616 0.752632L0.996443 0.776249L1.01951 1.75263L1.99616 1.75263L1.99616 0.752632ZM0.996443 0.77624C1.00424 1.10633 1.14232 1.41993 1.38053 1.64857L2.76545 0.205656C2.90837 0.342829 2.99121 0.530978 2.99589 0.729025L0.996443 0.77624ZM1.36588 1.63422L4.43912 4.70746L5.85334 3.29325L2.78009 0.220005L1.36588 1.63422ZM4.43912 3.29325L1.36588 6.36649L2.78009 7.7807L5.85334 4.70746L4.43912 3.29325ZM1.37634 6.35618C1.13394 6.59156 0.997155 6.91504 0.997141 7.25292L2.99714 7.253C2.99713 7.45571 2.91506 7.64979 2.76963 7.79101L1.37634 6.35618ZM0.997141 7.2532C0.997264 7.76203 1.3058 8.22001 1.77732 8.41126L2.52906 6.55792C2.81195 6.67266 2.99707 6.94743 2.99714 7.25272L0.997141 7.2532ZM1.77732 8.41126C2.24884 8.60251 2.78923 8.48887 3.14378 8.1239L1.70923 6.73032C1.92194 6.51135 2.24616 6.44317 2.52906 6.55791L1.77732 8.41126ZM3.13361 8.13422L6.38361 4.88422L4.9694 3.47L1.7194 6.72L3.13361 8.13422ZM6.38376 4.88407C6.87168 4.39595 6.87168 3.60476 6.38376 3.11664L4.96925 4.53056C4.67651 4.2377 4.67651 3.76301 4.96925 3.47015L6.38376 4.88407ZM6.38361 3.11649L3.13361 -0.133511L1.7194 1.2807L4.9694 4.5307L6.38361 3.11649ZM3.14796 -0.118859C2.7909 -0.490879 2.24205 -0.605468 1.76596 -0.407402L2.5342 1.43917C2.24856 1.558 1.91927 1.48925 1.70504 1.26605L3.14796 -0.118859ZM1.76596 -0.407401C1.28987 -0.209329 0.984265 0.260753 0.996443 0.776249L2.99589 0.729015C3.00319 1.03829 2.81984 1.32033 2.5342 1.43917L1.76596 -0.407401ZM1.99616 1.75263L1.99616 1.75263L1.99616 -0.247368L1.99616 -0.247368L1.99616 1.75263Z" fill="black" mask="url(#path-1-inside-1)"/>
</g>
<defs>
<clipPath id="clip0">
<rect width="8" height="8" fill="white" transform="translate(0 8) rotate(-90)"/>
</clipPath>
</defs>
</svg>
