<svg width="28" height="28" viewBox="0 0 28 28" fill="none" xmlns="http://www.w3.org/2000/svg">
<path d="M2.055 3.50009C1.7396 3.49563 1.44622 3.66142 1.28722 3.93398C1.12822 4.20654 1.12822 4.54364 1.28722 4.8162C1.44622 5.08876 1.7396 5.25455 2.055 5.25009H3.66181C4.08623 5.25009 4.44002 5.54346 4.52044 5.96103L4.69467 6.87249L6.57478 16.7516C6.91477 18.5339 8.48438 19.8334 10.2986 19.8334H21.2148C23.029 19.8334 24.5993 18.5344 24.9386 16.7516L26.8187 6.87249C26.8675 6.61639 26.7997 6.35185 26.6336 6.15092C26.4676 5.94998 26.2206 5.83358 25.9601 5.83342H6.27642L6.23884 5.63404C6.0038 4.40165 4.91601 3.50009 3.66181 3.50009L2.055 3.50009ZM6.61008 7.58342H24.9033L23.2202 16.4246C23.0359 17.3927 22.2004 18.0834 21.2148 18.0834H10.2986C9.31328 18.0834 8.47834 17.3926 8.29318 16.4246V16.4234L6.61008 7.58342ZM11.6753 21.0001C10.7093 21.0001 9.92618 21.7836 9.92618 22.7501C9.92618 23.7166 10.7093 24.5001 11.6753 24.5001C12.6414 24.5001 13.4245 23.7166 13.4245 22.7501C13.4245 21.7836 12.6414 21.0001 11.6753 21.0001ZM19.838 21.0001C18.872 21.0001 18.0889 21.7836 18.0889 22.7501C18.0889 23.7166 18.872 24.5001 19.838 24.5001C20.8041 24.5001 21.5872 23.7166 21.5872 22.7501C21.5872 21.7836 20.8041 21.0001 19.838 21.0001Z" fill="white"/>
</svg>
