<svg width="52" height="36" viewBox="0 0 52 36" fill="none" xmlns="http://www.w3.org/2000/svg">
<path fill-rule="evenodd" clip-rule="evenodd" d="M24.5583 23.2917V18.8898H26.8748C27.8241 18.8898 28.6253 18.5778 29.2784 17.9626L29.4352 17.8066C30.6282 16.5328 30.5499 14.5484 29.2784 13.37C28.6427 12.7461 27.7718 12.4081 26.8748 12.4254H23.1562V23.2917H24.5583ZM24.5584 17.5552V13.7598H26.9101C27.4153 13.7598 27.8944 13.9504 28.2515 14.2971C29.0092 15.0249 29.0267 16.2381 28.295 16.992C27.9379 17.3646 27.4327 17.5725 26.9101 17.5552H24.5584ZM35.9754 16.4374C35.3745 15.8915 34.5559 15.6142 33.5196 15.6142C32.1871 15.6142 31.1857 16.0995 30.5238 17.0613L31.7604 17.8326C32.2133 17.174 32.8316 16.8447 33.6154 16.8447C34.1117 16.8447 34.5907 17.0267 34.9652 17.356C35.331 17.6679 35.54 18.1185 35.54 18.5951V18.9157C35 18.6211 34.3208 18.4651 33.4847 18.4651C32.5094 18.4651 31.7256 18.6904 31.1421 19.1497C30.5586 19.6089 30.2625 20.2155 30.2625 20.9867C30.2451 21.6886 30.5499 22.3559 31.0899 22.8064C31.6385 23.2917 32.3352 23.5343 33.1538 23.5343C34.1205 23.5343 34.8868 23.1097 35.4703 22.2605H35.5312V23.2917H36.8724V18.7078C36.8724 17.7459 36.5763 16.9834 35.9754 16.4374ZM32.17 21.9226C31.8825 21.7146 31.7083 21.3767 31.7083 21.0127C31.7083 20.6055 31.8999 20.2675 32.2745 19.9989C32.6577 19.7303 33.1368 19.5916 33.7029 19.5916C34.4868 19.583 35.0965 19.7563 35.532 20.1029C35.532 20.6921 35.2968 21.2034 34.8352 21.6367C34.4171 22.0526 33.851 22.2865 33.2587 22.2865C32.8668 22.2952 32.4835 22.1652 32.17 21.9226ZM39.8855 26.5585L44.5707 15.8569H43.0467L40.8783 21.1947H40.8522L38.6315 15.8569H37.1075L40.1816 22.8151L38.4399 26.5585H39.8855Z" fill="#333333"/>
<path d="M19.7208 17.937C19.7208 17.5124 19.6859 17.0878 19.6163 16.6719H13.7031V19.0722H17.0908C16.9514 19.8434 16.4986 20.5366 15.8367 20.9699V22.5296H17.8571C19.0415 21.4465 19.7208 19.8434 19.7208 17.937Z" fill="#4285F4"/>
<path d="M13.7012 24.0374C15.3907 24.0374 16.8189 23.4828 17.8552 22.5296L15.8348 20.9698C15.2687 21.3511 14.5459 21.5677 13.7012 21.5677C12.064 21.5677 10.6793 20.4672 10.1829 18.9941H8.10156V20.6059C9.16401 22.7116 11.3325 24.0374 13.7012 24.0374Z" fill="#34A853"/>
<path d="M10.1842 18.9937C9.92292 18.2225 9.92292 17.382 10.1842 16.6021V14.999H8.10253C7.20541 16.7581 7.20541 18.8378 8.10253 20.5968L10.1842 18.9937Z" fill="#FBBC04"/>
<path d="M13.7012 14.0286C14.5982 14.0113 15.4603 14.3492 16.1048 14.9644L17.8987 13.1794C16.7579 12.1222 15.26 11.5416 13.7012 11.559C11.3325 11.559 9.16401 12.8934 8.10156 14.9991L10.1829 16.6108C10.6793 15.1291 12.064 14.0286 13.7012 14.0286Z" fill="#EA4335"/>
</svg>
