<svg width="28" height="28" viewBox="0 0 28 28" fill="none" xmlns="http://www.w3.org/2000/svg">
<path d="M8.7487 4.08398C5.21512 4.08398 2.33203 6.96708 2.33203 10.5007C2.33203 12.8901 4.13316 15.1398 6.32878 17.4471C8.5244 19.7544 11.2269 22.0912 13.38 24.2443C13.7218 24.5859 14.2756 24.5859 14.6174 24.2443C16.7705 22.0912 19.473 19.7544 21.6686 17.4471C23.8642 15.1398 25.6654 12.8901 25.6654 10.5007C25.6654 6.96708 22.7823 4.08398 19.2487 4.08398C17.2208 4.08398 15.4552 5.17277 13.9987 7.0223C12.5422 5.17277 10.7766 4.08398 8.7487 4.08398H8.7487ZM8.7487 5.83398C10.457 5.83398 11.879 6.74305 13.2593 8.92611C13.4197 9.17956 13.6987 9.33318 13.9987 9.33318C14.2986 9.33318 14.5777 9.17956 14.7381 8.92611C16.1184 6.74305 17.5404 5.83398 19.2487 5.83398C21.8366 5.83398 23.9154 7.91273 23.9154 10.5007C23.9154 11.9029 22.5082 14.0281 20.4017 16.2417C18.4808 18.2603 16.093 20.3692 13.9987 22.4111C11.9044 20.3692 9.51661 18.2603 7.5957 16.2417C5.48924 14.0281 4.08203 11.9029 4.08203 10.5007C4.08203 7.91273 6.16077 5.83398 8.7487 5.83398Z" fill="#949495"/>
</svg>
