<svg width="24" height="24" viewBox="0 0 24 24" fill="none" xmlns="http://www.w3.org/2000/svg">
<mask id="path-1-outside-1" maskUnits="userSpaceOnUse" x="4.27734" y="4.27734" width="15" height="15" fill="black">
<rect fill="white" x="4.27734" y="4.27734" width="15" height="15"/>
<path d="M5.50042 17.4996C5.50042 17.4996 5.00041 18.0125 5.50039 18.4996C6.00037 18.9867 6.50036 18.4996 6.50036 18.4996L12.0004 12.9996L17.5004 18.4996C17.5004 18.4996 18.0004 19.021 18.5004 18.4996C19.0004 17.9782 18.5004 17.4996 18.5004 17.4996L13.0004 11.9996L18.5004 6.49959C18.5004 6.49959 19.0022 5.99957 18.5004 5.49957C17.9986 4.99957 17.5004 5.49958 17.5004 5.49958L12.0004 10.9996L6.50036 5.49957C6.50036 5.49957 6.00216 4.99957 5.50036 5.49957C4.99857 5.99957 5.50036 6.49957 5.50036 6.49957L11.0004 11.9996L5.50042 17.4996Z"/>
</mask>
<path d="M5.50042 17.4996C5.50042 17.4996 5.00041 18.0125 5.50039 18.4996C6.00037 18.9867 6.50036 18.4996 6.50036 18.4996L12.0004 12.9996L17.5004 18.4996C17.5004 18.4996 18.0004 19.021 18.5004 18.4996C19.0004 17.9782 18.5004 17.4996 18.5004 17.4996L13.0004 11.9996L18.5004 6.49959C18.5004 6.49959 19.0022 5.99957 18.5004 5.49957C17.9986 4.99957 17.5004 5.49958 17.5004 5.49958L12.0004 10.9996L6.50036 5.49957C6.50036 5.49957 6.00216 4.99957 5.50036 5.49957C4.99857 5.99957 5.50036 6.49957 5.50036 6.49957L11.0004 11.9996L5.50042 17.4996Z" fill="#333333"/>
<path d="M5.50042 17.4996L5.28827 17.2874L5.28561 17.2902L5.50042 17.4996ZM6.50036 18.4996L6.70973 18.7145L6.7125 18.7117L6.50036 18.4996ZM12.0004 12.9996L12.2125 12.7874L12.0004 12.5753L11.7882 12.7874L12.0004 12.9996ZM17.5004 18.4996L17.7169 18.2919L17.7125 18.2874L17.5004 18.4996ZM18.5004 17.4996L18.2882 17.7118L18.2929 17.7163L18.5004 17.4996ZM13.0004 11.9996L12.7882 11.7874L12.5761 11.9996L12.7882 12.2117L13.0004 11.9996ZM18.5004 6.49959L18.2886 6.28708L18.2882 6.28745L18.5004 6.49959ZM17.5004 5.49958L17.7125 5.71171L17.7129 5.71133L17.5004 5.49958ZM12.0004 10.9996L11.7882 11.2117L12.0004 11.4238L12.2125 11.2117L12.0004 10.9996ZM6.50036 5.49957L6.28785 5.71132L6.28823 5.7117L6.50036 5.49957ZM5.50036 6.49957L5.7125 6.28743L5.71212 6.28705L5.50036 6.49957ZM11.0004 11.9996L11.2125 12.2117L11.4246 11.9996L11.2125 11.7874L11.0004 11.9996ZM5.50042 17.4996C5.28561 17.2902 5.28551 17.2903 5.2854 17.2904C5.28537 17.2904 5.28526 17.2905 5.28519 17.2906C5.28504 17.2907 5.28488 17.2909 5.28472 17.2911C5.28439 17.2914 5.28403 17.2918 5.28364 17.2922C5.28285 17.293 5.28195 17.294 5.28093 17.295C5.27888 17.2972 5.27637 17.2999 5.27343 17.3031C5.26756 17.3095 5.25998 17.3181 5.25108 17.3286C5.23334 17.3495 5.21001 17.3787 5.1845 17.4151C5.13431 17.4866 5.07118 17.5923 5.02807 17.7228C4.98461 17.8543 4.95935 18.0178 4.99535 18.1969C5.03189 18.3787 5.12729 18.5549 5.29104 18.7145L5.70974 18.2847C5.6235 18.2007 5.59391 18.1301 5.58358 18.0787C5.57272 18.0246 5.57872 17.9687 5.59776 17.9111C5.61715 17.8524 5.64777 17.7994 5.67571 17.7596C5.68926 17.7403 5.70109 17.7256 5.70875 17.7166C5.71254 17.7121 5.71521 17.7091 5.71642 17.7078C5.71703 17.7071 5.71726 17.7069 5.71708 17.7071C5.71699 17.7072 5.71679 17.7074 5.71648 17.7077C5.71633 17.7079 5.71615 17.708 5.71594 17.7083C5.71584 17.7084 5.71573 17.7085 5.71561 17.7086C5.71555 17.7087 5.71546 17.7088 5.71543 17.7088C5.71533 17.7089 5.71523 17.709 5.50042 17.4996ZM5.29104 18.7145C5.45367 18.8729 5.63019 18.9645 5.81019 18.9995C5.98793 19.0342 6.14976 19.01 6.28053 18.9676C6.41017 18.9255 6.51483 18.8637 6.58579 18.8143C6.62182 18.7892 6.65071 18.7663 6.67144 18.7488C6.68185 18.74 6.69031 18.7325 6.69671 18.7267C6.69991 18.7237 6.7026 18.7212 6.70477 18.7192C6.70586 18.7182 6.70681 18.7172 6.70764 18.7165C6.70805 18.7161 6.70843 18.7157 6.70877 18.7154C6.70894 18.7152 6.70911 18.715 6.70927 18.7149C6.70934 18.7148 6.70946 18.7147 6.70949 18.7147C6.7096 18.7146 6.70971 18.7145 6.50036 18.4996C6.29102 18.2847 6.29112 18.2846 6.29122 18.2845C6.29125 18.2845 6.29135 18.2844 6.29142 18.2843C6.29154 18.2842 6.29166 18.2841 6.29177 18.284C6.292 18.2837 6.2922 18.2836 6.29237 18.2834C6.2927 18.2831 6.29294 18.2828 6.29306 18.2827C6.29331 18.2825 6.29313 18.2827 6.29255 18.2832C6.29137 18.2843 6.28861 18.2867 6.28436 18.2903C6.2758 18.2976 6.26172 18.3089 6.24307 18.3218C6.20465 18.3486 6.15307 18.3781 6.09521 18.3969C6.03848 18.4153 5.98157 18.4216 5.92494 18.4106C5.87057 18.4 5.79709 18.3698 5.70974 18.2847L5.29104 18.7145ZM6.7125 18.7117L12.2125 13.2117L11.7882 12.7874L6.28823 18.2874L6.7125 18.7117ZM11.7882 13.2117L17.2882 18.7117L17.7125 18.2874L12.2125 12.7874L11.7882 13.2117ZM17.5004 18.4996C17.2838 18.7072 17.2839 18.7073 17.284 18.7074C17.2841 18.7075 17.2842 18.7076 17.2843 18.7077C17.2844 18.7078 17.2846 18.708 17.2848 18.7082C17.2851 18.7085 17.2855 18.7089 17.2859 18.7093C17.2867 18.7101 17.2876 18.7111 17.2887 18.7122C17.2908 18.7143 17.2935 18.717 17.2966 18.72C17.3029 18.7262 17.3113 18.7342 17.3217 18.7435C17.3423 18.7622 17.3711 18.7867 17.4071 18.8135C17.4779 18.8662 17.5831 18.9328 17.7144 18.9785C17.847 19.0246 18.0125 19.0512 18.1944 19.0132C18.3785 18.9748 18.5557 18.8753 18.7169 18.7072L18.2838 18.2919C18.195 18.3845 18.1223 18.4153 18.0719 18.4258C18.0195 18.4368 17.9662 18.4308 17.9114 18.4117C17.8551 18.3922 17.8041 18.3611 17.7655 18.3323C17.7468 18.3184 17.7327 18.3062 17.724 18.2984C17.7197 18.2945 17.7168 18.2918 17.7156 18.2906C17.715 18.2899 17.7148 18.2897 17.715 18.2899C17.7151 18.29 17.7153 18.2903 17.7156 18.2906C17.7158 18.2908 17.716 18.2909 17.7162 18.2912C17.7163 18.2913 17.7164 18.2914 17.7165 18.2915C17.7166 18.2916 17.7167 18.2917 17.7167 18.2917C17.7168 18.2918 17.7169 18.2919 17.5004 18.4996ZM18.7169 18.7072C18.8765 18.5408 18.9697 18.3628 19.0056 18.1817C19.0412 18.0021 19.0165 17.8395 18.9721 17.708C18.9281 17.578 18.8636 17.4744 18.8122 17.4046C18.7861 17.3691 18.7621 17.3408 18.7439 17.3205C18.7347 17.3103 18.7268 17.302 18.7207 17.2957C18.7177 17.2926 18.715 17.2899 18.7129 17.2878C18.7118 17.2867 18.7108 17.2858 18.71 17.2849C18.7095 17.2845 18.7092 17.2841 18.7088 17.2838C18.7086 17.2836 18.7084 17.2835 18.7083 17.2833C18.7082 17.2832 18.7081 17.2831 18.708 17.2831C18.7079 17.283 18.7078 17.2829 18.5004 17.4996C18.2929 17.7163 18.2928 17.7162 18.2927 17.7161C18.2927 17.7161 18.2926 17.7159 18.2925 17.7159C18.2924 17.7158 18.2922 17.7156 18.2921 17.7155C18.2919 17.7153 18.2917 17.7151 18.2915 17.7149C18.2911 17.7146 18.2909 17.7143 18.2907 17.7142C18.2904 17.7139 18.2905 17.714 18.291 17.7144C18.292 17.7154 18.2944 17.7179 18.2979 17.7218C18.305 17.7298 18.3162 17.7429 18.3292 17.7605C18.3558 17.7967 18.3851 17.8453 18.4037 17.9002C18.4217 17.9535 18.4283 18.0083 18.417 18.065C18.4061 18.1203 18.3743 18.1976 18.2838 18.2919L18.7169 18.7072ZM18.7125 17.2874L13.2125 11.7874L12.7882 12.2117L18.2882 17.7117L18.7125 17.2874ZM13.2125 12.2117L18.7125 6.71172L18.2882 6.28745L12.7882 11.7874L13.2125 12.2117ZM18.5004 6.49959C18.7121 6.7121 18.7122 6.71199 18.7123 6.71188C18.7124 6.71184 18.7125 6.71173 18.7126 6.71166C18.7127 6.7115 18.7129 6.71134 18.713 6.71117C18.7134 6.71083 18.7138 6.71045 18.7142 6.71004C18.715 6.70923 18.7159 6.70828 18.7169 6.7072C18.719 6.70505 18.7216 6.70237 18.7246 6.69919C18.7306 6.69282 18.7383 6.68438 18.7473 6.674C18.7653 6.65332 18.7889 6.62446 18.8148 6.58843C18.8656 6.51754 18.9294 6.41259 18.973 6.28225C19.0171 6.15065 19.0422 5.98726 19.0062 5.80773C18.9697 5.62598 18.8747 5.44911 18.7121 5.28706L18.2886 5.71209C18.3769 5.80004 18.4074 5.87317 18.4179 5.9258C18.4289 5.98064 18.4227 6.036 18.404 6.09191C18.3849 6.14907 18.3547 6.20037 18.3271 6.23886C18.3137 6.25752 18.3021 6.27163 18.2946 6.28025C18.2909 6.28451 18.2883 6.28731 18.2872 6.28851C18.2866 6.28911 18.2864 6.2893 18.2866 6.28907C18.2867 6.28895 18.287 6.28873 18.2873 6.2884C18.2875 6.28823 18.2876 6.28804 18.2879 6.28782C18.288 6.28771 18.2881 6.28759 18.2882 6.28747C18.2883 6.28741 18.2884 6.28731 18.2884 6.28728C18.2885 6.28718 18.2886 6.28708 18.5004 6.49959ZM18.7121 5.28706C18.5496 5.12516 18.3727 5.03073 18.1912 4.99445C18.0119 4.95861 17.8487 4.98362 17.7172 5.02751C17.587 5.07097 17.4822 5.13466 17.4114 5.18536C17.3754 5.21113 17.3466 5.23471 17.3259 5.25267C17.3156 5.26169 17.3071 5.26938 17.3008 5.27535C17.2976 5.27834 17.2949 5.28091 17.2927 5.283C17.2917 5.28405 17.2907 5.28498 17.2899 5.28579C17.2895 5.28619 17.2891 5.28656 17.2888 5.28691C17.2886 5.28708 17.2884 5.28724 17.2883 5.28739C17.2882 5.28747 17.2881 5.28758 17.2881 5.28762C17.288 5.28773 17.2878 5.28783 17.5004 5.49958C17.7129 5.71133 17.7128 5.71143 17.7127 5.71153C17.7126 5.71156 17.7125 5.71166 17.7125 5.71172C17.7124 5.71185 17.7122 5.71197 17.7121 5.71208C17.7119 5.7123 17.7117 5.71249 17.7115 5.71266C17.7112 5.71299 17.711 5.71321 17.7109 5.71332C17.7106 5.71355 17.7108 5.71337 17.7114 5.71282C17.7126 5.71171 17.7153 5.70916 17.7196 5.70547C17.7281 5.69804 17.7422 5.68647 17.7607 5.67317C17.799 5.64575 17.8501 5.61569 17.9072 5.59665C17.9629 5.57803 18.0184 5.57179 18.0736 5.58282C18.1267 5.59342 18.2002 5.62398 18.2886 5.71209L18.7121 5.28706ZM17.2882 5.28745L11.7882 10.7874L12.2125 11.2117L17.7125 5.71171L17.2882 5.28745ZM12.2125 10.7874L6.7125 5.28743L6.28823 5.7117L11.7882 11.2117L12.2125 10.7874ZM6.50036 5.49957C6.71288 5.28782 6.71277 5.28771 6.71266 5.2876C6.71263 5.28756 6.71252 5.28745 6.71244 5.28738C6.71228 5.28722 6.71212 5.28706 6.71195 5.28689C6.71161 5.28655 6.71123 5.28617 6.71082 5.28577C6.71 5.28496 6.70906 5.28403 6.70798 5.28299C6.70582 5.28089 6.70315 5.27832 6.69996 5.27534C6.6936 5.26936 6.68517 5.26167 6.67481 5.25266C6.65415 5.23469 6.62533 5.21112 6.58935 5.18535C6.51854 5.13464 6.41374 5.07096 6.28351 5.0275C6.15201 4.98361 5.98886 4.9586 5.80952 4.99445C5.62802 5.03072 5.45109 5.12516 5.28861 5.28705L5.71212 5.71208C5.80053 5.62398 5.87406 5.59341 5.9271 5.58281C5.9823 5.57178 6.03779 5.57802 6.09357 5.59664C6.15062 5.61568 6.20172 5.64574 6.24001 5.67316C6.25857 5.68645 6.2726 5.69803 6.28115 5.70546C6.28538 5.70914 6.28815 5.7117 6.28933 5.71281C6.28992 5.71336 6.2901 5.71354 6.28986 5.71331C6.28974 5.71319 6.28952 5.71297 6.28918 5.71264C6.28901 5.71248 6.28882 5.71228 6.2886 5.71206C6.28849 5.71195 6.28837 5.71184 6.28825 5.71171C6.28818 5.71165 6.28808 5.71155 6.28805 5.71152C6.28795 5.71142 6.28785 5.71132 6.50036 5.49957ZM5.28861 5.28705C5.12599 5.4491 5.03102 5.62597 4.99454 5.80772C4.9585 5.98725 4.98366 6.15064 5.02769 6.28224C5.07129 6.41258 5.13516 6.51753 5.18598 6.58841C5.21181 6.62445 5.23544 6.6533 5.25343 6.67399C5.26245 6.68437 5.27016 6.6928 5.27614 6.69917C5.27913 6.70235 5.2817 6.70503 5.28379 6.70719C5.28484 6.70826 5.28577 6.70921 5.28657 6.71003C5.28697 6.71043 5.28735 6.71081 5.28769 6.71115C5.28786 6.71132 5.28802 6.71149 5.28817 6.71164C5.28825 6.71172 5.28836 6.71183 5.2884 6.71187C5.28851 6.71197 5.28861 6.71208 5.50036 6.49957C5.71212 6.28705 5.71222 6.28716 5.71232 6.28726C5.71235 6.28729 5.71245 6.28738 5.71251 6.28745C5.71263 6.28757 5.71275 6.28769 5.71286 6.2878C5.71308 6.28802 5.71327 6.28821 5.71343 6.28838C5.71376 6.28871 5.71398 6.28893 5.71409 6.28905C5.71432 6.28928 5.71413 6.28909 5.71357 6.28849C5.71244 6.28729 5.70985 6.28449 5.70614 6.28022C5.69865 6.27161 5.687 6.2575 5.67362 6.23884C5.64603 6.20035 5.61582 6.14906 5.59669 6.09189C5.57799 6.03599 5.5718 5.98063 5.5828 5.92579C5.59337 5.87316 5.62384 5.80003 5.71212 5.71208L5.28861 5.28705ZM5.28823 6.7117L10.7882 12.2117L11.2125 11.7874L5.7125 6.28743L5.28823 6.7117ZM10.7882 11.7874L5.28829 17.2874L5.71255 17.7117L11.2125 12.2117L10.7882 11.7874Z" fill="#333333" mask="url(#path-1-outside-1)"/>
</svg>
