<svg width="24" height="24" viewBox="0 0 24 24" fill="none" xmlns="http://www.w3.org/2000/svg">
<g clip-path="url(#clip0)">
<path d="M10.25 3C6.25482 3 3 6.25482 3 10.25C3 14.2452 6.25482 17.5 10.25 17.5C11.9782 17.5 13.5669 16.8895 14.8145 15.875L19.7197 20.7803C19.9078 20.9762 20.1872 21.0551 20.45 20.9866C20.7128 20.9181 20.9181 20.7128 20.9866 20.45C21.0551 20.1872 20.9762 19.9078 20.7803 19.7197L15.875 14.8145C16.8895 13.5669 17.5 11.9782 17.5 10.25C17.5 6.25482 14.2452 3 10.25 3ZM10.25 4.5C13.4345 4.5 16 7.06548 16 10.25C16 11.8013 15.3881 13.2029 14.3955 14.2354C14.3343 14.2803 14.2803 14.3343 14.2354 14.3955C13.2029 15.3881 11.8013 16 10.25 16C7.06547 16 4.5 13.4345 4.5 10.25C4.5 7.06548 7.06547 4.5 10.25 4.5L10.25 4.5Z" fill="white"/>
</g>
<defs>
<clipPath id="clip0">
<rect width="24" height="24" fill="white"/>
</clipPath>
</defs>
</svg>
