<svg width="19" height="19" viewBox="0 0 19 19" fill="none" xmlns="http://www.w3.org/2000/svg">
<path d="M7.25 0C3.25482 0 0 3.25482 0 7.25C0 11.2452 3.25482 14.5 7.25 14.5C8.97818 14.5 10.5669 13.8895 11.8145 12.875L16.7197 17.7803C16.9078 17.9762 17.1872 18.0551 17.45 17.9866C17.7128 17.9181 17.9181 17.7128 17.9866 17.45C18.0551 17.1872 17.9762 16.9078 17.7803 16.7197L12.875 11.8145C13.8895 10.5669 14.5 8.97818 14.5 7.25C14.5 3.25482 11.2452 0 7.25 0V0ZM7.25 1.5C10.4345 1.5 13 4.06548 13 7.25C13 8.80131 12.3881 10.2029 11.3955 11.2354C11.3343 11.2803 11.2803 11.3343 11.2354 11.3955C10.2029 12.3881 8.80131 13 7.25 13C4.06547 13 1.5 10.4345 1.5 7.25C1.5 4.06548 4.06547 1.5 7.25 1.5L7.25 1.5Z" fill="#55109F"/>
</svg>
