<svg width="52" height="36" viewBox="0 0 52 36" fill="none" xmlns="http://www.w3.org/2000/svg">
<path fill-rule="evenodd" clip-rule="evenodd" d="M16.4402 23.7878H13.29L10.9278 14.689C10.8157 14.2704 10.5776 13.9004 10.2274 13.726C9.35345 13.2877 8.39042 12.9389 7.33984 12.763V12.4127H12.4146C13.1149 12.4127 13.6402 12.9389 13.7278 13.5501L14.9534 20.1134L18.1021 12.4127H21.1647L16.4402 23.7878ZM22.9157 23.7878H19.9406L22.3904 12.4127H25.3655L22.9157 23.7878ZM29.2145 15.564C29.3021 14.9513 29.8274 14.601 30.4402 14.601C31.4032 14.513 32.4523 14.689 33.3278 15.1257L33.8531 12.6766C32.9776 12.3263 32.0145 12.1504 31.1406 12.1504C28.2531 12.1504 26.1519 13.726 26.1519 15.9127C26.1519 17.5763 27.6402 18.4498 28.6908 18.976C29.8274 19.5007 30.2651 19.851 30.1776 20.3757C30.1776 21.1628 29.3021 21.5131 28.4282 21.5131C27.3776 21.5131 26.327 21.2507 25.3655 20.8125L24.8402 23.2631C25.8908 23.6998 27.0274 23.8757 28.078 23.8757C31.3157 23.9622 33.3278 22.3881 33.3278 20.0254C33.3278 17.0501 29.2145 16.8757 29.2145 15.564ZM43.7398 23.7878L41.3776 12.4127H38.8402C38.3149 12.4127 37.7896 12.763 37.6146 13.2877L33.2402 23.7878H36.3029L36.9142 22.1257H40.6772L41.0274 23.7878H43.7398ZM39.2779 15.476L40.1519 19.7631H37.7021L39.2779 15.476Z" fill="#333333"/>
</svg>
