<svg width="52" height="36" viewBox="0 0 52 36" fill="none" xmlns="http://www.w3.org/2000/svg">
<path d="M36.4015 16.1687C36.2943 15.5191 35.7045 15.0861 34.9004 15.0861C34.6323 15.0861 34.4179 15.0861 34.1498 15.0861C33.6673 15.032 33.5601 15.1944 33.5601 15.5733C33.5601 17.4677 33.5601 19.308 33.5601 21.2025C33.5601 22.1768 32.5951 23.2052 31.4692 23.4217C27.9309 24.2336 24.3925 24.9914 20.8541 25.8033C20.4789 25.9115 20.05 25.9115 19.6211 25.9115C19.4602 25.9115 19.1922 25.8033 19.1386 25.6409C19.085 25.5326 19.2458 25.3161 19.353 25.2079C19.5138 25.0996 19.7283 24.9914 19.9427 24.8831C20.5861 24.6666 21.283 24.4501 21.9264 24.2336C24.5533 23.3676 27.1803 22.5015 29.8073 21.5814C30.9867 21.2025 31.6301 20.3906 31.6301 19.3622C31.6837 16.1145 31.6301 12.8128 31.6301 9.56517C31.6301 9.02389 31.362 8.59088 30.7723 8.37437C30.0753 8.10374 29.432 8.32024 28.8423 8.59088C25.0894 10.3771 21.3902 12.1633 17.6374 13.9495C16.5652 14.4907 15.9219 15.2485 15.9219 16.331C15.9219 19.4163 15.9219 22.5015 15.9219 25.5868C15.9219 25.7492 15.9219 25.9115 15.9755 26.0198C16.3508 27.0482 17.3158 27.6977 18.6025 27.6977C21.2294 27.6977 23.8564 27.6977 26.4833 27.6977C29.1103 27.6977 31.6837 27.6977 34.3106 27.6977C34.9004 27.6977 35.3829 27.5895 35.8118 27.2106C36.3479 26.7776 36.3479 26.1822 36.3479 25.6409C36.3479 22.978 36.4015 16.1687 36.4015 16.1687ZM25.4647 15.1944C25.7328 14.4907 26.3225 14.0577 27.1803 13.9495C27.77 13.8953 28.2525 14.2201 28.3598 14.7614C28.467 15.5733 27.502 16.5476 26.4833 16.5476C25.6792 16.5476 25.1967 15.9522 25.4647 15.1944Z" fill="#FD6727"/>
</svg>
