<svg width="156" height="40" viewBox="0 0 156 40" fill="none" xmlns="http://www.w3.org/2000/svg">
<g clip-path="url(#clip0)">
<path d="M9.54505 30.528L9.1824 31.986H9.06876L8.74314 30.528L3.85633 15.8877H0L7.6935 36.6501H10.5385L18.1362 15.8877H14.2991L9.54505 30.528Z" fill="white"/>
<path d="M23.7024 6.71484C23.4553 6.71468 23.2106 6.76346 22.9824 6.85841C22.7541 6.95336 22.5467 7.0926 22.372 7.26819C22.1973 7.44377 22.0587 7.65225 21.9643 7.88169C21.8698 8.11114 21.8213 8.35705 21.8214 8.60537V8.68109C21.8149 8.93342 21.8587 9.1845 21.9502 9.41954C22.0418 9.65459 22.1792 9.86882 22.3545 10.0496C22.5297 10.2304 22.7392 10.3741 22.9706 10.4722C23.202 10.5703 23.4506 10.6209 23.7017 10.6209C23.9529 10.6209 24.2014 10.5703 24.4328 10.4722C24.6642 10.3741 24.8737 10.2304 25.0489 10.0496C25.2242 9.86882 25.3616 9.65459 25.4532 9.41954C25.5447 9.1845 25.5885 8.93342 25.582 8.68109V8.60537C25.5822 8.35716 25.5337 8.11135 25.4393 7.88199C25.3449 7.65263 25.2065 7.44421 25.0319 7.26864C24.8574 7.09307 24.6501 6.9538 24.422 6.85878C24.1938 6.76375 23.9493 6.71484 23.7024 6.71484V6.71484Z" fill="white"/>
<path d="M25.5821 15.8877H21.8215V36.6501H25.5821V15.8877Z" fill="white"/>
<path d="M35.4334 6.71484H31.6729V36.65H35.4334V6.71484Z" fill="white"/>
<path d="M43.4041 6.71484C42.9053 6.71484 42.4268 6.91402 42.0741 7.26856C41.7214 7.6231 41.5232 8.10397 41.5232 8.60536V8.68109C41.5232 9.18248 41.7214 9.66334 42.0741 10.0179C42.4268 10.3724 42.9053 10.5716 43.4041 10.5716C43.903 10.5716 44.3814 10.3724 44.7341 10.0179C45.0868 9.66334 45.285 9.18248 45.285 8.68109V8.60536C45.285 8.10397 45.0868 7.6231 44.7341 7.26856C44.3814 6.91402 43.903 6.71484 43.4041 6.71484V6.71484Z" fill="white"/>
<path d="M45.2838 15.8877H41.5232V36.6501H45.2838V15.8877Z" fill="white"/>
<path d="M86.8579 13.3836L74.3529 1.53997C73.31 0.550026 71.9298 -0.00146484 70.4953 -0.00146484C69.0608 -0.00146484 67.6807 0.550026 66.6377 1.53997C65.5949 2.52913 64.2153 3.08013 62.7814 3.08011H57.8295V7.44384C57.8281 8.21369 57.6703 8.97514 57.3655 9.68142C57.0607 10.3877 56.6154 11.0239 56.0571 11.5509L54.1276 13.3785C53.5698 13.9073 53.1253 14.545 52.8214 15.2525C52.5175 15.9601 52.3606 16.7226 52.3604 17.4933V34.3462C52.3595 35.0889 52.5044 35.8245 52.7868 36.5108C53.0692 37.1971 53.4835 37.8207 54.006 38.3458C54.5285 38.871 55.1489 39.2874 55.8317 39.5712C56.5145 39.855 57.2463 40.0007 57.9852 39.9998H83.0003C84.4922 39.9998 85.9231 39.4042 86.9782 38.344C88.0332 37.2838 88.6261 35.8458 88.6265 34.3462V17.4984C88.6262 16.7276 88.4693 15.965 88.1651 15.2574C87.861 14.5498 87.4162 13.9121 86.8579 13.3836V13.3836ZM58.5101 31.9475C57.6226 31.9475 57.0148 31.2595 57.0148 30.3432C57.0148 29.4011 57.6532 28.7388 58.5356 28.7388C59.418 28.7388 60.0309 29.4011 60.0309 30.3432C60.0283 31.2595 59.4448 31.9475 58.5075 31.9475H58.5101ZM68.8532 21.2499C68.6016 21.1946 68.3445 21.1688 68.087 21.1729C66.5164 21.1729 65.4055 22.3704 65.0965 24.0517C65.0345 24.3966 65.0007 24.746 64.9956 25.0964V31.6677H62.789V23.1854C62.789 21.7338 62.7648 20.4901 62.6882 19.335H64.6393L64.7159 21.7556H64.8168C65.3748 20.0999 66.7169 19.0603 68.2135 19.0603C68.4287 19.0573 68.6433 19.0828 68.8519 19.1361L68.8532 21.2499ZM79.4709 31.6677L79.3432 29.6552H79.2921C78.8787 30.3641 78.2854 30.9499 77.5728 31.3527C76.8602 31.7554 76.054 31.9607 75.2366 31.9475C73.311 31.9475 71.0048 30.8784 71.0048 26.548V19.3389H73.2356V26.1655C73.2356 28.5091 73.9443 30.0877 75.9721 30.0877C77.4674 30.0877 78.5068 29.0443 78.909 28.0509C79.0446 27.6842 79.1134 27.296 79.1121 26.9048V19.3389H81.3403V28.305C81.3403 29.5795 81.3671 30.7 81.4424 31.6677H79.4709Z" fill="white"/>
</g>
<path d="M105.537 18L103.143 11.826V18H102.149V10.678H103.815L105.887 16.152L108.015 10.678H109.639V18H108.491V11.826L106.069 18H105.537ZM113.952 17.202C114.587 17.202 115.105 17.048 115.506 16.74C115.917 16.4227 116.122 15.9887 116.122 15.438V14.528H115.114C113.415 14.528 112.566 15.0087 112.566 15.97C112.566 16.7913 113.028 17.202 113.952 17.202ZM113.84 18.126C113.121 18.126 112.533 17.9487 112.076 17.594C111.628 17.23 111.404 16.6887 111.404 15.97C111.404 15.186 111.749 14.612 112.44 14.248C113.14 13.884 114.017 13.702 115.072 13.702H116.122V13.17C116.122 12.582 116.001 12.162 115.758 11.91C115.515 11.6487 115.114 11.518 114.554 11.518C113.546 11.518 112.986 11.9567 112.874 12.834H111.712C111.787 12.05 112.095 11.476 112.636 11.112C113.177 10.7387 113.835 10.552 114.61 10.552C116.393 10.552 117.284 11.4247 117.284 13.17V18H116.122V17.076C115.562 17.776 114.801 18.126 113.84 18.126ZM124.215 11.658H120.729V18H119.567V10.678H124.215V11.658ZM127.692 17.202C128.327 17.202 128.845 17.048 129.246 16.74C129.657 16.4227 129.862 15.9887 129.862 15.438V14.528H128.854C127.156 14.528 126.306 15.0087 126.306 15.97C126.306 16.7913 126.768 17.202 127.692 17.202ZM127.58 18.126C126.862 18.126 126.274 17.9487 125.816 17.594C125.368 17.23 125.144 16.6887 125.144 15.97C125.144 15.186 125.49 14.612 126.18 14.248C126.88 13.884 127.758 13.702 128.812 13.702H129.862V13.17C129.862 12.582 129.741 12.162 129.498 11.91C129.256 11.6487 128.854 11.518 128.294 11.518C127.286 11.518 126.726 11.9567 126.614 12.834H125.452C125.527 12.05 125.835 11.476 126.376 11.112C126.918 10.7387 127.576 10.552 128.35 10.552C130.133 10.552 131.024 11.4247 131.024 13.17V18H129.862V17.076C129.302 17.776 128.542 18.126 127.58 18.126ZM138.025 12.54V12.582C138.025 12.946 137.918 13.282 137.703 13.59C137.498 13.8887 137.204 14.0753 136.821 14.15C137.297 14.234 137.675 14.416 137.955 14.696C138.235 14.976 138.375 15.3447 138.375 15.802V15.844C138.375 16.5253 138.128 17.076 137.633 17.496C137.138 17.916 136.457 18.126 135.589 18.126C134.712 18.126 134.021 17.916 133.517 17.496C133.013 17.076 132.742 16.4927 132.705 15.746H133.839C133.932 16.6887 134.516 17.16 135.589 17.16C136.634 17.16 137.157 16.7447 137.157 15.914V15.872C137.157 15.088 136.653 14.696 135.645 14.696H134.539V13.772H135.449C135.934 13.772 136.28 13.6833 136.485 13.506C136.7 13.3287 136.807 13.0393 136.807 12.638V12.596C136.807 11.8773 136.387 11.518 135.547 11.518C134.735 11.518 134.25 11.9007 134.091 12.666H132.971C133.148 11.2567 134.03 10.552 135.617 10.552C136.308 10.552 136.882 10.7293 137.339 11.084C137.796 11.4293 138.025 11.9147 138.025 12.54ZM141.387 18H140.225V10.678H141.387V16.32L145.125 10.678H146.287V18H145.125V12.358L141.387 18ZM153.256 18V14.738H149.658V18H148.496V10.678H149.658V13.758H153.256V10.678H154.418V18H153.256ZM106.545 34L103.297 30.262V34H102.135V26.678H103.297V30.094L106.335 26.678H107.693L104.557 30.122L107.959 34H106.545ZM112.118 34.126C111.082 34.126 110.224 33.776 109.542 33.076C108.87 32.3667 108.534 31.4753 108.534 30.402V30.29C108.534 29.198 108.87 28.302 109.542 27.602C110.224 26.902 111.087 26.552 112.132 26.552C113.178 26.552 114.036 26.902 114.708 27.602C115.39 28.2927 115.73 29.184 115.73 30.276V30.388C115.73 31.4893 115.39 32.39 114.708 33.09C114.027 33.7807 113.164 34.126 112.118 34.126ZM112.132 33.16C112.86 33.16 113.439 32.908 113.868 32.404C114.307 31.9 114.526 31.2327 114.526 30.402V30.304C114.526 29.4547 114.307 28.778 113.868 28.274C113.439 27.77 112.86 27.518 112.132 27.518C111.395 27.518 110.812 27.77 110.382 28.274C109.953 28.778 109.738 29.45 109.738 30.29V30.402C109.738 31.242 109.953 31.914 110.382 32.418C110.812 32.9127 111.395 33.16 112.132 33.16ZM117.53 34V26.678H120.092C121.809 26.678 122.668 27.2987 122.668 28.54V28.582C122.668 28.9367 122.57 29.2633 122.374 29.562C122.178 29.8513 121.884 30.0473 121.492 30.15C122.509 30.3647 123.018 30.9153 123.018 31.802V31.844C123.018 32.5533 122.784 33.09 122.318 33.454C121.86 33.818 121.221 34 120.4 34H117.53ZM120.078 27.602H118.692V29.772H120.092C120.577 29.772 120.922 29.6833 121.128 29.506C121.342 29.3287 121.45 29.0393 121.45 28.638V28.596C121.45 28.2227 121.338 27.966 121.114 27.826C120.89 27.6767 120.544 27.602 120.078 27.602ZM120.288 30.696H118.692V33.076H120.288C120.801 33.076 121.179 32.9827 121.422 32.796C121.674 32.6093 121.8 32.3153 121.8 31.914V31.872C121.8 31.088 121.296 30.696 120.288 30.696ZM128.399 33.16C129.127 33.16 129.683 32.922 130.065 32.446C130.448 31.97 130.639 31.2887 130.639 30.402V30.29C130.639 29.4033 130.425 28.722 129.995 28.246C129.575 27.7607 129.039 27.518 128.385 27.518C127.676 27.518 127.097 27.756 126.649 28.232C126.211 28.6987 125.991 29.3847 125.991 30.29V30.402C125.991 31.3073 126.206 31.9933 126.635 32.46C127.074 32.9267 127.662 33.16 128.399 33.16ZM124.871 36.548V26.678H126.033V27.91C126.257 27.5367 126.598 27.2193 127.055 26.958C127.513 26.6873 127.998 26.552 128.511 26.552C129.491 26.552 130.289 26.888 130.905 27.56C131.531 28.2227 131.843 29.114 131.843 30.234V30.346C131.843 31.4753 131.535 32.39 130.919 33.09C130.313 33.7807 129.51 34.126 128.511 34.126C127.942 34.126 127.443 34.0047 127.013 33.762C126.584 33.51 126.257 33.188 126.033 32.796V36.548H124.871ZM136.687 34.126C135.651 34.126 134.792 33.776 134.111 33.076C133.439 32.3667 133.103 31.4753 133.103 30.402V30.29C133.103 29.198 133.439 28.302 134.111 27.602C134.792 26.902 135.655 26.552 136.701 26.552C137.746 26.552 138.605 26.902 139.277 27.602C139.958 28.2927 140.299 29.184 140.299 30.276V30.388C140.299 31.4893 139.958 32.39 139.277 33.09C138.595 33.7807 137.732 34.126 136.687 34.126ZM136.701 33.16C137.429 33.16 138.007 32.908 138.437 32.404C138.875 31.9 139.095 31.2327 139.095 30.402V30.304C139.095 29.4547 138.875 28.778 138.437 28.274C138.007 27.77 137.429 27.518 136.701 27.518C135.963 27.518 135.38 27.77 134.951 28.274C134.521 28.778 134.307 29.45 134.307 30.29V30.402C134.307 31.242 134.521 31.914 134.951 32.418C135.38 32.9127 135.963 33.16 136.701 33.16ZM142.098 34V26.678H144.66C146.377 26.678 147.236 27.2987 147.236 28.54V28.582C147.236 28.9367 147.138 29.2633 146.942 29.562C146.746 29.8513 146.452 30.0473 146.06 30.15C147.077 30.3647 147.586 30.9153 147.586 31.802V31.844C147.586 32.5533 147.353 33.09 146.886 33.454C146.429 33.818 145.789 34 144.968 34H142.098ZM144.646 27.602H143.26V29.772H144.66C145.145 29.772 145.491 29.6833 145.696 29.506C145.911 29.3287 146.018 29.0393 146.018 28.638V28.596C146.018 28.2227 145.906 27.966 145.682 27.826C145.458 27.6767 145.113 27.602 144.646 27.602ZM144.856 30.696H143.26V33.076H144.856C145.369 33.076 145.747 32.9827 145.99 32.796C146.242 32.6093 146.368 32.3153 146.368 31.914V31.872C146.368 31.088 145.864 30.696 144.856 30.696Z" fill="white"/>
<defs>
<clipPath id="clip0">
<rect width="148" height="40" fill="white"/>
</clipPath>
</defs>
</svg>
